M48
; DRILL file {KiCad (6.0.7)} date Wed Jul  5 17:19:06 2023
; FORMAT={-:-/ absolute / inch / decimal}
; #@! TF.CreationDate,2023-07-05T17:19:06+02:00
; #@! TF.GenerationSoftware,Kicad,Pcbnew,(6.0.7)
; #@! TF.FileFunction,Plated,1,2,PTH
FMAT,2
INCH
; #@! TA.AperFunction,Plated,PTH,ViaDrill
T1C0.0118
; #@! TA.AperFunction,Plated,PTH,ViaDrill
T2C0.0157
; #@! TA.AperFunction,Plated,PTH,ComponentDrill
T3C0.0315
; #@! TA.AperFunction,Plated,PTH,ComponentDrill
T4C0.0394
%
G90
G05
T1
X5.9059Y-4.1689
X5.9346Y-2.9701
X5.9346Y-3.0331
X5.9476Y-4.1272
X5.9508Y-4.213
X5.9931Y-4.1707
T2
X5.0158Y-3.7992
X5.0886Y-3.7402
X5.3937Y-3.1102
X5.6299Y-3.1102
X5.8071Y-2.8248
X5.8071Y-2.8937
T3
X4.8425Y-3.7402
X4.8425Y-3.8402
X4.8425Y-3.9402
X4.8425Y-4.0402
T4
X5.2177Y-3.0016
X5.2177Y-3.1016
X5.2177Y-3.2016
X5.2177Y-3.3016
X5.2177Y-3.4016
X5.2177Y-3.5016
X5.2177Y-3.6016
X5.2177Y-3.7016
X5.2177Y-3.8016
X5.2177Y-3.9016
X5.2177Y-4.0016
X5.2177Y-4.1016
X5.2177Y-4.2016
X5.2177Y-4.3016
X5.2177Y-4.4016
X5.8177Y-3.0016
X5.8177Y-3.1016
X5.8177Y-3.2016
X5.8177Y-3.3016
X5.8177Y-3.4016
X5.8177Y-3.5016
X5.8177Y-3.6016
X5.8177Y-3.7016
X5.8177Y-3.8016
X5.8177Y-3.9016
X5.8177Y-4.0016
X5.8177Y-4.1016
X5.8177Y-4.2016
X5.8177Y-4.3016
X5.8177Y-4.4016
X6.1648Y-3.9508
X6.1648Y-4.0508
X6.1648Y-4.1508
X6.1648Y-4.2508
X6.1648Y-4.3508
X6.1648Y-4.4508
X6.1648Y-4.5508
X6.1648Y-4.6508
X6.1772Y-2.9291
X6.1772Y-3.0276
X6.1772Y-3.126
X6.1772Y-3.2244
X6.1772Y-3.3228
X6.1772Y-3.4213
X6.1772Y-3.5197
X6.1772Y-3.6181
T0
M30
