%TF.GenerationSoftware,KiCad,Pcbnew,(6.0.7)*%
%TF.CreationDate,2023-07-05T17:17:39+02:00*%
%TF.ProjectId,project_alpha,70726f6a-6563-4745-9f61-6c7068612e6b,rev?*%
%TF.SameCoordinates,Original*%
%TF.FileFunction,Soldermask,Bot*%
%TF.FilePolarity,Negative*%
%FSLAX46Y46*%
G04 Gerber Fmt 4.6, Leading zero omitted, Abs format (unit mm)*
G04 Created by KiCad (PCBNEW (6.0.7)) date 2023-07-05 17:17:39*
%MOMM*%
%LPD*%
G01*
G04 APERTURE LIST*
%ADD10R,1.500000X1.500000*%
%ADD11C,1.500000*%
%ADD12R,1.600000X1.600000*%
%ADD13O,1.600000X1.600000*%
G04 APERTURE END LIST*
D10*
%TO.C,U1*%
X123000000Y-95000000D03*
D11*
X123000000Y-97540000D03*
X123000000Y-100080000D03*
X123000000Y-102620000D03*
%TD*%
D12*
%TO.C,Arduino_Nano_33_IOT1*%
X132530000Y-76240000D03*
D13*
X132530000Y-78780000D03*
X132530000Y-81320000D03*
X132530000Y-83860000D03*
X132530000Y-86400000D03*
X132530000Y-88940000D03*
X132530000Y-91480000D03*
X132530000Y-94020000D03*
X132530000Y-96560000D03*
X132530000Y-99100000D03*
X132530000Y-101640000D03*
X132530000Y-104180000D03*
X132530000Y-106720000D03*
X132530000Y-109260000D03*
X132530000Y-111800000D03*
X147770000Y-111800000D03*
X147770000Y-109260000D03*
X147770000Y-106720000D03*
X147770000Y-104180000D03*
X147770000Y-101640000D03*
X147770000Y-99100000D03*
X147770000Y-96560000D03*
X147770000Y-94020000D03*
X147770000Y-91480000D03*
X147770000Y-88940000D03*
X147770000Y-86400000D03*
X147770000Y-83860000D03*
X147770000Y-81320000D03*
X147770000Y-78780000D03*
X147770000Y-76240000D03*
%TD*%
%TO.C,CCS811_1*%
X156585000Y-100350000D03*
X156585000Y-102890000D03*
X156585000Y-105430000D03*
X156585000Y-107970000D03*
X156585000Y-110510000D03*
X156585000Y-113050000D03*
X156585000Y-115590000D03*
X156585000Y-118130000D03*
%TD*%
%TO.C,PMS5003_1*%
X156900000Y-74400000D03*
X156900000Y-76900000D03*
X156900000Y-79400000D03*
X156900000Y-81900000D03*
X156900000Y-84400000D03*
X156900000Y-86900000D03*
X156900000Y-89400000D03*
X156900000Y-91900000D03*
%TD*%
M02*
