%TF.GenerationSoftware,KiCad,Pcbnew,(6.0.7)*%
%TF.CreationDate,2023-07-05T17:17:39+02:00*%
%TF.ProjectId,project_alpha,70726f6a-6563-4745-9f61-6c7068612e6b,rev?*%
%TF.SameCoordinates,Original*%
%TF.FileFunction,Legend,Bot*%
%TF.FilePolarity,Positive*%
%FSLAX46Y46*%
G04 Gerber Fmt 4.6, Leading zero omitted, Abs format (unit mm)*
G04 Created by KiCad (PCBNEW (6.0.7)) date 2023-07-05 17:17:39*
%MOMM*%
%LPD*%
G01*
G04 APERTURE LIST*
%ADD10C,0.250000*%
G04 APERTURE END LIST*
D10*
X168347619Y-115399404D02*
X169347619Y-115399404D01*
X168347619Y-114970833D02*
X168871428Y-114970833D01*
X168966666Y-115018452D01*
X169014285Y-115113690D01*
X169014285Y-115256547D01*
X168966666Y-115351785D01*
X168919047Y-115399404D01*
X169014285Y-114637500D02*
X169014285Y-114256547D01*
X169347619Y-114494642D02*
X168490476Y-114494642D01*
X168395238Y-114447023D01*
X168347619Y-114351785D01*
X168347619Y-114256547D01*
X169014285Y-114066071D02*
X169014285Y-113685119D01*
X169347619Y-113923214D02*
X168490476Y-113923214D01*
X168395238Y-113875595D01*
X168347619Y-113780357D01*
X168347619Y-113685119D01*
X169014285Y-113351785D02*
X168014285Y-113351785D01*
X168966666Y-113351785D02*
X169014285Y-113256547D01*
X169014285Y-113066071D01*
X168966666Y-112970833D01*
X168919047Y-112923214D01*
X168823809Y-112875595D01*
X168538095Y-112875595D01*
X168442857Y-112923214D01*
X168395238Y-112970833D01*
X168347619Y-113066071D01*
X168347619Y-113256547D01*
X168395238Y-113351785D01*
X168395238Y-112494642D02*
X168347619Y-112399404D01*
X168347619Y-112208928D01*
X168395238Y-112113690D01*
X168490476Y-112066071D01*
X168538095Y-112066071D01*
X168633333Y-112113690D01*
X168680952Y-112208928D01*
X168680952Y-112351785D01*
X168728571Y-112447023D01*
X168823809Y-112494642D01*
X168871428Y-112494642D01*
X168966666Y-112447023D01*
X169014285Y-112351785D01*
X169014285Y-112208928D01*
X168966666Y-112113690D01*
X168442857Y-111637500D02*
X168395238Y-111589880D01*
X168347619Y-111637500D01*
X168395238Y-111685119D01*
X168442857Y-111637500D01*
X168347619Y-111637500D01*
X168966666Y-111637500D02*
X168919047Y-111589880D01*
X168871428Y-111637500D01*
X168919047Y-111685119D01*
X168966666Y-111637500D01*
X168871428Y-111637500D01*
X169395238Y-110447023D02*
X168109523Y-111304166D01*
X169395238Y-109399404D02*
X168109523Y-110256547D01*
X169014285Y-108637500D02*
X168204761Y-108637500D01*
X168109523Y-108685119D01*
X168061904Y-108732738D01*
X168014285Y-108827976D01*
X168014285Y-108970833D01*
X168061904Y-109066071D01*
X168395238Y-108637500D02*
X168347619Y-108732738D01*
X168347619Y-108923214D01*
X168395238Y-109018452D01*
X168442857Y-109066071D01*
X168538095Y-109113690D01*
X168823809Y-109113690D01*
X168919047Y-109066071D01*
X168966666Y-109018452D01*
X169014285Y-108923214D01*
X169014285Y-108732738D01*
X168966666Y-108637500D01*
X168347619Y-108161309D02*
X169014285Y-108161309D01*
X169347619Y-108161309D02*
X169300000Y-108208928D01*
X169252380Y-108161309D01*
X169300000Y-108113690D01*
X169347619Y-108161309D01*
X169252380Y-108161309D01*
X169014285Y-107827976D02*
X169014285Y-107447023D01*
X169347619Y-107685119D02*
X168490476Y-107685119D01*
X168395238Y-107637500D01*
X168347619Y-107542261D01*
X168347619Y-107447023D01*
X168347619Y-107113690D02*
X169347619Y-107113690D01*
X168347619Y-106685119D02*
X168871428Y-106685119D01*
X168966666Y-106732738D01*
X169014285Y-106827976D01*
X169014285Y-106970833D01*
X168966666Y-107066071D01*
X168919047Y-107113690D01*
X169014285Y-105780357D02*
X168347619Y-105780357D01*
X169014285Y-106208928D02*
X168490476Y-106208928D01*
X168395238Y-106161309D01*
X168347619Y-106066071D01*
X168347619Y-105923214D01*
X168395238Y-105827976D01*
X168442857Y-105780357D01*
X168347619Y-105304166D02*
X169347619Y-105304166D01*
X168966666Y-105304166D02*
X169014285Y-105208928D01*
X169014285Y-105018452D01*
X168966666Y-104923214D01*
X168919047Y-104875595D01*
X168823809Y-104827976D01*
X168538095Y-104827976D01*
X168442857Y-104875595D01*
X168395238Y-104923214D01*
X168347619Y-105018452D01*
X168347619Y-105208928D01*
X168395238Y-105304166D01*
X168442857Y-104399404D02*
X168395238Y-104351785D01*
X168347619Y-104399404D01*
X168395238Y-104447023D01*
X168442857Y-104399404D01*
X168347619Y-104399404D01*
X168395238Y-103494642D02*
X168347619Y-103589880D01*
X168347619Y-103780357D01*
X168395238Y-103875595D01*
X168442857Y-103923214D01*
X168538095Y-103970833D01*
X168823809Y-103970833D01*
X168919047Y-103923214D01*
X168966666Y-103875595D01*
X169014285Y-103780357D01*
X169014285Y-103589880D01*
X168966666Y-103494642D01*
X168347619Y-102923214D02*
X168395238Y-103018452D01*
X168442857Y-103066071D01*
X168538095Y-103113690D01*
X168823809Y-103113690D01*
X168919047Y-103066071D01*
X168966666Y-103018452D01*
X169014285Y-102923214D01*
X169014285Y-102780357D01*
X168966666Y-102685119D01*
X168919047Y-102637500D01*
X168823809Y-102589880D01*
X168538095Y-102589880D01*
X168442857Y-102637500D01*
X168395238Y-102685119D01*
X168347619Y-102780357D01*
X168347619Y-102923214D01*
X168347619Y-102161309D02*
X169014285Y-102161309D01*
X168919047Y-102161309D02*
X168966666Y-102113690D01*
X169014285Y-102018452D01*
X169014285Y-101875595D01*
X168966666Y-101780357D01*
X168871428Y-101732738D01*
X168347619Y-101732738D01*
X168871428Y-101732738D02*
X168966666Y-101685119D01*
X169014285Y-101589880D01*
X169014285Y-101447023D01*
X168966666Y-101351785D01*
X168871428Y-101304166D01*
X168347619Y-101304166D01*
X169395238Y-100113690D02*
X168109523Y-100970833D01*
X169300000Y-99256547D02*
X169347619Y-99351785D01*
X169347619Y-99494642D01*
X169300000Y-99637500D01*
X169204761Y-99732738D01*
X169109523Y-99780357D01*
X168919047Y-99827976D01*
X168776190Y-99827976D01*
X168585714Y-99780357D01*
X168490476Y-99732738D01*
X168395238Y-99637500D01*
X168347619Y-99494642D01*
X168347619Y-99399404D01*
X168395238Y-99256547D01*
X168442857Y-99208928D01*
X168776190Y-99208928D01*
X168776190Y-99399404D01*
X168347619Y-98780357D02*
X169014285Y-98780357D01*
X169347619Y-98780357D02*
X169300000Y-98827976D01*
X169252380Y-98780357D01*
X169300000Y-98732738D01*
X169347619Y-98780357D01*
X169252380Y-98780357D01*
X168347619Y-98161309D02*
X168395238Y-98256547D01*
X168442857Y-98304166D01*
X168538095Y-98351785D01*
X168823809Y-98351785D01*
X168919047Y-98304166D01*
X168966666Y-98256547D01*
X169014285Y-98161309D01*
X169014285Y-98018452D01*
X168966666Y-97923214D01*
X168919047Y-97875595D01*
X168823809Y-97827976D01*
X168538095Y-97827976D01*
X168442857Y-97875595D01*
X168395238Y-97923214D01*
X168347619Y-98018452D01*
X168347619Y-98161309D01*
X169014285Y-97494642D02*
X168347619Y-97256547D01*
X169014285Y-97018452D01*
X168347619Y-96208928D02*
X168871428Y-96208928D01*
X168966666Y-96256547D01*
X169014285Y-96351785D01*
X169014285Y-96542261D01*
X168966666Y-96637500D01*
X168395238Y-96208928D02*
X168347619Y-96304166D01*
X168347619Y-96542261D01*
X168395238Y-96637500D01*
X168490476Y-96685119D01*
X168585714Y-96685119D01*
X168680952Y-96637500D01*
X168728571Y-96542261D01*
X168728571Y-96304166D01*
X168776190Y-96208928D01*
X169014285Y-95732738D02*
X168347619Y-95732738D01*
X168919047Y-95732738D02*
X168966666Y-95685119D01*
X169014285Y-95589880D01*
X169014285Y-95447023D01*
X168966666Y-95351785D01*
X168871428Y-95304166D01*
X168347619Y-95304166D01*
X169014285Y-94827976D02*
X168347619Y-94827976D01*
X168919047Y-94827976D02*
X168966666Y-94780357D01*
X169014285Y-94685119D01*
X169014285Y-94542261D01*
X168966666Y-94447023D01*
X168871428Y-94399404D01*
X168347619Y-94399404D01*
X168347619Y-93923214D02*
X169014285Y-93923214D01*
X169347619Y-93923214D02*
X169300000Y-93970833D01*
X169252380Y-93923214D01*
X169300000Y-93875595D01*
X169347619Y-93923214D01*
X169252380Y-93923214D01*
X168728571Y-93447023D02*
X168728571Y-92685119D01*
X168347619Y-92208928D02*
X169347619Y-92208928D01*
X169347619Y-91827976D01*
X169300000Y-91732738D01*
X169252380Y-91685119D01*
X169157142Y-91637500D01*
X169014285Y-91637500D01*
X168919047Y-91685119D01*
X168871428Y-91732738D01*
X168823809Y-91827976D01*
X168823809Y-92208928D01*
X168347619Y-91208928D02*
X169014285Y-91208928D01*
X169347619Y-91208928D02*
X169300000Y-91256547D01*
X169252380Y-91208928D01*
X169300000Y-91161309D01*
X169347619Y-91208928D01*
X169252380Y-91208928D01*
X168395238Y-90780357D02*
X168347619Y-90685119D01*
X168347619Y-90494642D01*
X168395238Y-90399404D01*
X168490476Y-90351785D01*
X168538095Y-90351785D01*
X168633333Y-90399404D01*
X168680952Y-90494642D01*
X168680952Y-90637500D01*
X168728571Y-90732738D01*
X168823809Y-90780357D01*
X168871428Y-90780357D01*
X168966666Y-90732738D01*
X169014285Y-90637500D01*
X169014285Y-90494642D01*
X168966666Y-90399404D01*
X169014285Y-90066071D02*
X169014285Y-89685119D01*
X169347619Y-89923214D02*
X168490476Y-89923214D01*
X168395238Y-89875595D01*
X168347619Y-89780357D01*
X168347619Y-89685119D01*
X168347619Y-89208928D02*
X168395238Y-89304166D01*
X168442857Y-89351785D01*
X168538095Y-89399404D01*
X168823809Y-89399404D01*
X168919047Y-89351785D01*
X168966666Y-89304166D01*
X169014285Y-89208928D01*
X169014285Y-89066071D01*
X168966666Y-88970833D01*
X168919047Y-88923214D01*
X168823809Y-88875595D01*
X168538095Y-88875595D01*
X168442857Y-88923214D01*
X168395238Y-88970833D01*
X168347619Y-89066071D01*
X168347619Y-89208928D01*
X169395238Y-87732738D02*
X168109523Y-88589880D01*
X168633333Y-87447023D02*
X168633333Y-86970833D01*
X168347619Y-87542261D02*
X169347619Y-87208928D01*
X168347619Y-86875595D01*
X168347619Y-86542261D02*
X169014285Y-86542261D01*
X168823809Y-86542261D02*
X168919047Y-86494642D01*
X168966666Y-86447023D01*
X169014285Y-86351785D01*
X169014285Y-86256547D01*
X168347619Y-85494642D02*
X169347619Y-85494642D01*
X168395238Y-85494642D02*
X168347619Y-85589880D01*
X168347619Y-85780357D01*
X168395238Y-85875595D01*
X168442857Y-85923214D01*
X168538095Y-85970833D01*
X168823809Y-85970833D01*
X168919047Y-85923214D01*
X168966666Y-85875595D01*
X169014285Y-85780357D01*
X169014285Y-85589880D01*
X168966666Y-85494642D01*
X169014285Y-84589880D02*
X168347619Y-84589880D01*
X169014285Y-85018452D02*
X168490476Y-85018452D01*
X168395238Y-84970833D01*
X168347619Y-84875595D01*
X168347619Y-84732738D01*
X168395238Y-84637500D01*
X168442857Y-84589880D01*
X168347619Y-84113690D02*
X169014285Y-84113690D01*
X169347619Y-84113690D02*
X169300000Y-84161309D01*
X169252380Y-84113690D01*
X169300000Y-84066071D01*
X169347619Y-84113690D01*
X169252380Y-84113690D01*
X169014285Y-83637500D02*
X168347619Y-83637500D01*
X168919047Y-83637500D02*
X168966666Y-83589880D01*
X169014285Y-83494642D01*
X169014285Y-83351785D01*
X168966666Y-83256547D01*
X168871428Y-83208928D01*
X168347619Y-83208928D01*
X168347619Y-82589880D02*
X168395238Y-82685119D01*
X168442857Y-82732738D01*
X168538095Y-82780357D01*
X168823809Y-82780357D01*
X168919047Y-82732738D01*
X168966666Y-82685119D01*
X169014285Y-82589880D01*
X169014285Y-82447023D01*
X168966666Y-82351785D01*
X168919047Y-82304166D01*
X168823809Y-82256547D01*
X168538095Y-82256547D01*
X168442857Y-82304166D01*
X168395238Y-82351785D01*
X168347619Y-82447023D01*
X168347619Y-82589880D01*
X168728571Y-81827976D02*
X168728571Y-81066071D01*
X168347619Y-80161309D02*
X168871428Y-80161309D01*
X168966666Y-80208928D01*
X169014285Y-80304166D01*
X169014285Y-80494642D01*
X168966666Y-80589880D01*
X168395238Y-80161309D02*
X168347619Y-80256547D01*
X168347619Y-80494642D01*
X168395238Y-80589880D01*
X168490476Y-80637500D01*
X168585714Y-80637500D01*
X168680952Y-80589880D01*
X168728571Y-80494642D01*
X168728571Y-80256547D01*
X168776190Y-80161309D01*
X168347619Y-79685119D02*
X169014285Y-79685119D01*
X169347619Y-79685119D02*
X169300000Y-79732738D01*
X169252380Y-79685119D01*
X169300000Y-79637500D01*
X169347619Y-79685119D01*
X169252380Y-79685119D01*
X168347619Y-79208928D02*
X169014285Y-79208928D01*
X168823809Y-79208928D02*
X168919047Y-79161309D01*
X168966666Y-79113690D01*
X169014285Y-79018452D01*
X169014285Y-78923214D01*
X168728571Y-78589880D02*
X168728571Y-77827976D01*
X169014285Y-76923214D02*
X168014285Y-76923214D01*
X168395238Y-76923214D02*
X168347619Y-77018452D01*
X168347619Y-77208928D01*
X168395238Y-77304166D01*
X168442857Y-77351785D01*
X168538095Y-77399404D01*
X168823809Y-77399404D01*
X168919047Y-77351785D01*
X168966666Y-77304166D01*
X169014285Y-77208928D01*
X169014285Y-77018452D01*
X168966666Y-76923214D01*
X169014285Y-76018452D02*
X168347619Y-76018452D01*
X169014285Y-76447023D02*
X168490476Y-76447023D01*
X168395238Y-76399404D01*
X168347619Y-76304166D01*
X168347619Y-76161309D01*
X168395238Y-76066071D01*
X168442857Y-76018452D01*
X168347619Y-75113690D02*
X168871428Y-75113690D01*
X168966666Y-75161309D01*
X169014285Y-75256547D01*
X169014285Y-75447023D01*
X168966666Y-75542261D01*
X168395238Y-75113690D02*
X168347619Y-75208928D01*
X168347619Y-75447023D01*
X168395238Y-75542261D01*
X168490476Y-75589880D01*
X168585714Y-75589880D01*
X168680952Y-75542261D01*
X168728571Y-75447023D01*
X168728571Y-75208928D01*
X168776190Y-75113690D01*
X168347619Y-74494642D02*
X168395238Y-74589880D01*
X168490476Y-74637500D01*
X169347619Y-74637500D01*
X168347619Y-74113690D02*
X169014285Y-74113690D01*
X169347619Y-74113690D02*
X169300000Y-74161309D01*
X169252380Y-74113690D01*
X169300000Y-74066071D01*
X169347619Y-74113690D01*
X169252380Y-74113690D01*
X169014285Y-73780357D02*
X169014285Y-73399404D01*
X169347619Y-73637500D02*
X168490476Y-73637500D01*
X168395238Y-73589880D01*
X168347619Y-73494642D01*
X168347619Y-73399404D01*
X169014285Y-73161309D02*
X168347619Y-72923214D01*
X169014285Y-72685119D02*
X168347619Y-72923214D01*
X168109523Y-73018452D01*
X168061904Y-73066071D01*
X168014285Y-73161309D01*
%TO.C,G\u002A\u002A\u002A*%
G36*
X168953510Y-117104093D02*
G01*
X169038935Y-117114047D01*
X169122670Y-117131125D01*
X169202312Y-117154753D01*
X169281948Y-117186163D01*
X169358342Y-117224296D01*
X169431090Y-117268800D01*
X169499789Y-117319321D01*
X169564037Y-117375506D01*
X169623430Y-117437001D01*
X169677566Y-117503453D01*
X169726042Y-117574508D01*
X169768454Y-117649814D01*
X169804400Y-117729016D01*
X169812849Y-117750850D01*
X169838554Y-117830759D01*
X169857360Y-117913325D01*
X169869245Y-117997712D01*
X169874184Y-118083086D01*
X169872153Y-118168612D01*
X169863130Y-118253454D01*
X169847089Y-118336779D01*
X169824008Y-118417752D01*
X169802860Y-118474981D01*
X169767088Y-118553274D01*
X169724954Y-118627705D01*
X169676853Y-118697941D01*
X169623174Y-118763647D01*
X169564312Y-118824487D01*
X169500658Y-118880128D01*
X169432604Y-118930236D01*
X169360544Y-118974475D01*
X169284868Y-119012511D01*
X169205970Y-119044011D01*
X169124242Y-119068639D01*
X169040076Y-119086061D01*
X168974171Y-119094383D01*
X168889452Y-119098746D01*
X168804425Y-119096292D01*
X168720269Y-119087111D01*
X168638161Y-119071295D01*
X168559278Y-119048934D01*
X168497802Y-119026075D01*
X168419705Y-118989863D01*
X168344800Y-118946904D01*
X168273630Y-118897618D01*
X168206738Y-118842424D01*
X168144668Y-118781742D01*
X168087962Y-118715992D01*
X168037164Y-118645592D01*
X168027316Y-118630035D01*
X168009932Y-118600229D01*
X167992317Y-118567456D01*
X167975225Y-118533298D01*
X167959410Y-118499337D01*
X167945625Y-118467157D01*
X167934624Y-118438342D01*
X167927159Y-118414472D01*
X167925307Y-118403608D01*
X167926936Y-118384423D01*
X167934647Y-118367954D01*
X167947844Y-118355889D01*
X167951203Y-118354109D01*
X167956209Y-118352301D01*
X167962929Y-118350977D01*
X167972380Y-118350081D01*
X167985578Y-118349555D01*
X168003539Y-118349340D01*
X168027279Y-118349379D01*
X168057816Y-118349613D01*
X168079607Y-118349843D01*
X168104316Y-118350187D01*
X168125465Y-118350576D01*
X168141991Y-118350985D01*
X168152830Y-118351391D01*
X168156919Y-118351772D01*
X168157066Y-118354493D01*
X168156499Y-118363606D01*
X168155217Y-118377517D01*
X168153358Y-118394576D01*
X168152433Y-118404058D01*
X168151201Y-118433902D01*
X168151826Y-118466631D01*
X168154145Y-118499595D01*
X168157996Y-118530141D01*
X168163218Y-118555620D01*
X168171681Y-118580240D01*
X168187581Y-118610539D01*
X168207949Y-118637596D01*
X168231609Y-118659906D01*
X168257382Y-118675964D01*
X168271169Y-118682469D01*
X168297042Y-118694879D01*
X168317550Y-118705113D01*
X168333924Y-118713841D01*
X168347393Y-118721733D01*
X168359187Y-118729461D01*
X168370536Y-118737695D01*
X168373289Y-118739813D01*
X168387852Y-118752125D01*
X168401115Y-118764948D01*
X168410501Y-118775823D01*
X168422263Y-118791781D01*
X168435953Y-118809255D01*
X168446932Y-118821459D01*
X168456037Y-118829191D01*
X168464102Y-118833246D01*
X168471962Y-118834420D01*
X168477815Y-118831671D01*
X168482588Y-118822188D01*
X168485009Y-118806798D01*
X168484839Y-118786394D01*
X168483365Y-118774036D01*
X168474553Y-118743335D01*
X168458865Y-118712900D01*
X168436923Y-118683617D01*
X168409349Y-118656375D01*
X168376764Y-118632062D01*
X168349406Y-118612723D01*
X168325674Y-118591457D01*
X168306926Y-118568550D01*
X168291736Y-118542501D01*
X168290948Y-118540905D01*
X168285051Y-118528656D01*
X168281092Y-118518891D01*
X168278686Y-118509550D01*
X168277447Y-118498574D01*
X168276988Y-118483903D01*
X168276923Y-118463479D01*
X168276924Y-118461479D01*
X168277172Y-118439928D01*
X168278076Y-118423528D01*
X168279966Y-118409814D01*
X168283173Y-118396327D01*
X168288026Y-118380603D01*
X168299120Y-118346733D01*
X168327895Y-118340331D01*
X168331375Y-118339526D01*
X168363522Y-118329281D01*
X168393204Y-118314964D01*
X168417833Y-118297800D01*
X168433457Y-118284426D01*
X168442120Y-118338322D01*
X168445470Y-118358093D01*
X168453799Y-118398809D01*
X168463542Y-118434823D01*
X168475326Y-118468289D01*
X168489784Y-118501364D01*
X168513416Y-118545554D01*
X168542799Y-118588183D01*
X168576156Y-118624720D01*
X168614057Y-118655624D01*
X168657074Y-118681355D01*
X168705777Y-118702370D01*
X168760738Y-118719129D01*
X168761474Y-118719315D01*
X168800405Y-118727357D01*
X168842478Y-118732955D01*
X168885942Y-118736083D01*
X168929046Y-118736713D01*
X168970038Y-118734819D01*
X169007166Y-118730375D01*
X169038680Y-118723354D01*
X169047808Y-118720553D01*
X169098117Y-118701100D01*
X169143201Y-118676488D01*
X169182504Y-118647014D01*
X169195196Y-118635870D01*
X169228273Y-118645773D01*
X169229914Y-118646261D01*
X169247710Y-118650955D01*
X169264390Y-118653863D01*
X169282923Y-118655370D01*
X169306275Y-118655859D01*
X169336052Y-118655242D01*
X169367434Y-118652260D01*
X169398053Y-118646302D01*
X169431602Y-118636808D01*
X169439544Y-118634259D01*
X169451608Y-118629886D01*
X169458597Y-118625986D01*
X169462174Y-118621447D01*
X169464001Y-118615160D01*
X169464648Y-118610809D01*
X169464277Y-118591642D01*
X169460078Y-118567437D01*
X169452465Y-118539321D01*
X169441850Y-118508423D01*
X169428648Y-118475871D01*
X169413271Y-118442791D01*
X169396133Y-118410312D01*
X169377647Y-118379562D01*
X169374429Y-118374610D01*
X169368595Y-118365458D01*
X169364767Y-118357997D01*
X169362854Y-118350665D01*
X169362767Y-118341902D01*
X169364415Y-118330147D01*
X169367709Y-118313839D01*
X169372558Y-118291418D01*
X169374502Y-118282107D01*
X169385893Y-118209139D01*
X169391394Y-118133301D01*
X169391006Y-118056596D01*
X169384727Y-117981022D01*
X169372558Y-117908582D01*
X169370241Y-117897874D01*
X169366064Y-117878332D01*
X169363483Y-117864218D01*
X169362586Y-117853971D01*
X169363466Y-117846030D01*
X169366212Y-117838835D01*
X169370914Y-117830824D01*
X169377663Y-117820438D01*
X169381536Y-117814351D01*
X169399893Y-117783118D01*
X169416810Y-117750532D01*
X169431867Y-117717711D01*
X169444644Y-117685772D01*
X169454721Y-117655834D01*
X169461679Y-117629013D01*
X169465098Y-117606427D01*
X169464556Y-117589194D01*
X169464381Y-117588310D01*
X169462093Y-117581585D01*
X169457627Y-117576021D01*
X169449889Y-117571061D01*
X169437788Y-117566145D01*
X169420230Y-117560716D01*
X169396124Y-117554214D01*
X169380121Y-117550536D01*
X169340915Y-117545027D01*
X169300933Y-117543790D01*
X169262615Y-117546824D01*
X169228399Y-117554131D01*
X169195448Y-117564057D01*
X169177615Y-117549020D01*
X169158495Y-117534287D01*
X169121066Y-117511174D01*
X169079602Y-117491558D01*
X169036338Y-117476436D01*
X168993508Y-117466807D01*
X168982678Y-117465483D01*
X168958602Y-117464022D01*
X168929893Y-117463617D01*
X168898524Y-117464191D01*
X168866471Y-117465670D01*
X168835705Y-117467977D01*
X168808202Y-117471037D01*
X168785934Y-117474774D01*
X168739049Y-117486619D01*
X168685830Y-117505420D01*
X168638663Y-117528586D01*
X168597759Y-117556010D01*
X168563329Y-117587587D01*
X168556887Y-117594724D01*
X168523431Y-117638565D01*
X168495009Y-117688310D01*
X168471664Y-117743863D01*
X168453435Y-117805132D01*
X168440364Y-117872020D01*
X168433817Y-117915541D01*
X168414234Y-117900061D01*
X168399103Y-117888826D01*
X168381200Y-117878044D01*
X168361447Y-117869332D01*
X168336888Y-117861206D01*
X168329789Y-117859190D01*
X168322644Y-117857491D01*
X168314720Y-117856082D01*
X168305235Y-117854922D01*
X168293410Y-117853970D01*
X168278461Y-117853185D01*
X168259607Y-117852527D01*
X168236067Y-117851954D01*
X168207059Y-117851426D01*
X168171802Y-117850901D01*
X168129513Y-117850339D01*
X167950860Y-117848031D01*
X167938627Y-117835792D01*
X167931248Y-117827228D01*
X167927272Y-117817779D01*
X167926155Y-117804540D01*
X167926172Y-117802813D01*
X167928545Y-117786552D01*
X167934532Y-117764924D01*
X167943648Y-117739019D01*
X167955407Y-117709933D01*
X167969326Y-117678758D01*
X167984917Y-117646589D01*
X168001696Y-117614518D01*
X168019178Y-117583638D01*
X168036877Y-117555045D01*
X168077300Y-117497714D01*
X168132286Y-117431618D01*
X168192881Y-117370275D01*
X168258481Y-117314152D01*
X168328481Y-117263717D01*
X168402279Y-117219437D01*
X168479270Y-117181779D01*
X168558849Y-117151210D01*
X168613522Y-117134864D01*
X168696401Y-117116649D01*
X168781312Y-117105428D01*
X168867326Y-117101231D01*
X168953510Y-117104093D01*
G37*
%TD*%
M02*
