%TF.GenerationSoftware,KiCad,Pcbnew,(6.0.7)*%
%TF.CreationDate,2023-07-05T17:17:39+02:00*%
%TF.ProjectId,project_alpha,70726f6a-6563-4745-9f61-6c7068612e6b,rev?*%
%TF.SameCoordinates,Original*%
%TF.FileFunction,Legend,Top*%
%TF.FilePolarity,Positive*%
%FSLAX46Y46*%
G04 Gerber Fmt 4.6, Leading zero omitted, Abs format (unit mm)*
G04 Created by KiCad (PCBNEW (6.0.7)) date 2023-07-05 17:17:39*
%MOMM*%
%LPD*%
G01*
G04 APERTURE LIST*
%ADD10C,0.250000*%
%ADD11C,0.125000*%
%ADD12C,0.150000*%
%ADD13C,0.120000*%
G04 APERTURE END LIST*
D10*
X163638095Y-121685714D02*
X163876190Y-122352380D01*
X164114285Y-121685714D01*
X164495238Y-122257142D02*
X164542857Y-122304761D01*
X164495238Y-122352380D01*
X164447619Y-122304761D01*
X164495238Y-122257142D01*
X164495238Y-122352380D01*
X166257142Y-122352380D02*
X165685714Y-122352380D01*
X165971428Y-122352380D02*
X165971428Y-121352380D01*
X165876190Y-121495238D01*
X165780952Y-121590476D01*
X165685714Y-121638095D01*
X166685714Y-122257142D02*
X166733333Y-122304761D01*
X166685714Y-122352380D01*
X166638095Y-122304761D01*
X166685714Y-122257142D01*
X166685714Y-122352380D01*
X167352380Y-121352380D02*
X167447619Y-121352380D01*
X167542857Y-121400000D01*
X167590476Y-121447619D01*
X167638095Y-121542857D01*
X167685714Y-121733333D01*
X167685714Y-121971428D01*
X167638095Y-122161904D01*
X167590476Y-122257142D01*
X167542857Y-122304761D01*
X167447619Y-122352380D01*
X167352380Y-122352380D01*
X167257142Y-122304761D01*
X167209523Y-122257142D01*
X167161904Y-122161904D01*
X167114285Y-121971428D01*
X167114285Y-121733333D01*
X167161904Y-121542857D01*
X167209523Y-121447619D01*
X167257142Y-121400000D01*
X167352380Y-121352380D01*
X168114285Y-122257142D02*
X168161904Y-122304761D01*
X168114285Y-122352380D01*
X168066666Y-122304761D01*
X168114285Y-122257142D01*
X168114285Y-122352380D01*
X168780952Y-121352380D02*
X168876190Y-121352380D01*
X168971428Y-121400000D01*
X169019047Y-121447619D01*
X169066666Y-121542857D01*
X169114285Y-121733333D01*
X169114285Y-121971428D01*
X169066666Y-122161904D01*
X169019047Y-122257142D01*
X168971428Y-122304761D01*
X168876190Y-122352380D01*
X168780952Y-122352380D01*
X168685714Y-122304761D01*
X168638095Y-122257142D01*
X168590476Y-122161904D01*
X168542857Y-121971428D01*
X168542857Y-121733333D01*
X168590476Y-121542857D01*
X168638095Y-121447619D01*
X168685714Y-121400000D01*
X168780952Y-121352380D01*
D11*
X158834047Y-76579213D02*
X158786428Y-76555403D01*
X158715000Y-76555403D01*
X158643571Y-76579213D01*
X158595952Y-76626832D01*
X158572142Y-76674451D01*
X158548333Y-76769689D01*
X158548333Y-76841117D01*
X158572142Y-76936355D01*
X158595952Y-76983974D01*
X158643571Y-77031593D01*
X158715000Y-77055403D01*
X158762619Y-77055403D01*
X158834047Y-77031593D01*
X158857857Y-77007784D01*
X158857857Y-76841117D01*
X158762619Y-76841117D01*
X159072142Y-77055403D02*
X159072142Y-76555403D01*
X159357857Y-77055403D01*
X159357857Y-76555403D01*
X159595952Y-77055403D02*
X159595952Y-76555403D01*
X159715000Y-76555403D01*
X159786428Y-76579213D01*
X159834047Y-76626832D01*
X159857857Y-76674451D01*
X159881666Y-76769689D01*
X159881666Y-76841117D01*
X159857857Y-76936355D01*
X159834047Y-76983974D01*
X159786428Y-77031593D01*
X159715000Y-77055403D01*
X159595952Y-77055403D01*
X158394761Y-108133167D02*
X158466190Y-108156977D01*
X158585238Y-108156977D01*
X158632857Y-108133167D01*
X158656666Y-108109358D01*
X158680476Y-108061739D01*
X158680476Y-108014120D01*
X158656666Y-107966501D01*
X158632857Y-107942691D01*
X158585238Y-107918882D01*
X158490000Y-107895072D01*
X158442380Y-107871263D01*
X158418571Y-107847453D01*
X158394761Y-107799834D01*
X158394761Y-107752215D01*
X158418571Y-107704596D01*
X158442380Y-107680787D01*
X158490000Y-107656977D01*
X158609047Y-107656977D01*
X158680476Y-107680787D01*
X159180476Y-108109358D02*
X159156666Y-108133167D01*
X159085238Y-108156977D01*
X159037619Y-108156977D01*
X158966190Y-108133167D01*
X158918571Y-108085548D01*
X158894761Y-108037929D01*
X158870952Y-107942691D01*
X158870952Y-107871263D01*
X158894761Y-107776025D01*
X158918571Y-107728406D01*
X158966190Y-107680787D01*
X159037619Y-107656977D01*
X159085238Y-107656977D01*
X159156666Y-107680787D01*
X159180476Y-107704596D01*
X159632857Y-108156977D02*
X159394761Y-108156977D01*
X159394761Y-107656977D01*
X144044761Y-91442380D02*
X144116190Y-91466190D01*
X144235238Y-91466190D01*
X144282857Y-91442380D01*
X144306666Y-91418571D01*
X144330476Y-91370952D01*
X144330476Y-91323333D01*
X144306666Y-91275714D01*
X144282857Y-91251904D01*
X144235238Y-91228095D01*
X144140000Y-91204285D01*
X144092380Y-91180476D01*
X144068571Y-91156666D01*
X144044761Y-91109047D01*
X144044761Y-91061428D01*
X144068571Y-91013809D01*
X144092380Y-90990000D01*
X144140000Y-90966190D01*
X144259047Y-90966190D01*
X144330476Y-90990000D01*
X144830476Y-91418571D02*
X144806666Y-91442380D01*
X144735238Y-91466190D01*
X144687619Y-91466190D01*
X144616190Y-91442380D01*
X144568571Y-91394761D01*
X144544761Y-91347142D01*
X144520952Y-91251904D01*
X144520952Y-91180476D01*
X144544761Y-91085238D01*
X144568571Y-91037619D01*
X144616190Y-90990000D01*
X144687619Y-90966190D01*
X144735238Y-90966190D01*
X144806666Y-90990000D01*
X144830476Y-91013809D01*
X145282857Y-91466190D02*
X145044761Y-91466190D01*
X145044761Y-90966190D01*
X144032857Y-93942380D02*
X144104285Y-93966190D01*
X144223333Y-93966190D01*
X144270952Y-93942380D01*
X144294761Y-93918571D01*
X144318571Y-93870952D01*
X144318571Y-93823333D01*
X144294761Y-93775714D01*
X144270952Y-93751904D01*
X144223333Y-93728095D01*
X144128095Y-93704285D01*
X144080476Y-93680476D01*
X144056666Y-93656666D01*
X144032857Y-93609047D01*
X144032857Y-93561428D01*
X144056666Y-93513809D01*
X144080476Y-93490000D01*
X144128095Y-93466190D01*
X144247142Y-93466190D01*
X144318571Y-93490000D01*
X144532857Y-93966190D02*
X144532857Y-93466190D01*
X144651904Y-93466190D01*
X144723333Y-93490000D01*
X144770952Y-93537619D01*
X144794761Y-93585238D01*
X144818571Y-93680476D01*
X144818571Y-93751904D01*
X144794761Y-93847142D01*
X144770952Y-93894761D01*
X144723333Y-93942380D01*
X144651904Y-93966190D01*
X144532857Y-93966190D01*
X145009047Y-93823333D02*
X145247142Y-93823333D01*
X144961428Y-93966190D02*
X145128095Y-93466190D01*
X145294761Y-93966190D01*
X158235238Y-117966190D02*
X158354285Y-118466190D01*
X158449523Y-118109047D01*
X158544761Y-118466190D01*
X158663809Y-117966190D01*
X158830476Y-118323333D02*
X159068571Y-118323333D01*
X158782857Y-118466190D02*
X158949523Y-117966190D01*
X159116190Y-118466190D01*
X159282857Y-118466190D02*
X159282857Y-117966190D01*
X159568571Y-118466190D02*
X159354285Y-118180476D01*
X159568571Y-117966190D02*
X159282857Y-118251904D01*
X159782857Y-118204285D02*
X159949523Y-118204285D01*
X160020952Y-118466190D02*
X159782857Y-118466190D01*
X159782857Y-117966190D01*
X160020952Y-117966190D01*
X120619047Y-94750000D02*
X120571428Y-94726190D01*
X120500000Y-94726190D01*
X120428571Y-94750000D01*
X120380952Y-94797619D01*
X120357142Y-94845238D01*
X120333333Y-94940476D01*
X120333333Y-95011904D01*
X120357142Y-95107142D01*
X120380952Y-95154761D01*
X120428571Y-95202380D01*
X120500000Y-95226190D01*
X120547619Y-95226190D01*
X120619047Y-95202380D01*
X120642857Y-95178571D01*
X120642857Y-95011904D01*
X120547619Y-95011904D01*
X120857142Y-95226190D02*
X120857142Y-94726190D01*
X121142857Y-95226190D01*
X121142857Y-94726190D01*
X121380952Y-95226190D02*
X121380952Y-94726190D01*
X121500000Y-94726190D01*
X121571428Y-94750000D01*
X121619047Y-94797619D01*
X121642857Y-94845238D01*
X121666666Y-94940476D01*
X121666666Y-95011904D01*
X121642857Y-95107142D01*
X121619047Y-95154761D01*
X121571428Y-95202380D01*
X121500000Y-95226190D01*
X121380952Y-95226190D01*
X144759047Y-78490000D02*
X144711428Y-78466190D01*
X144640000Y-78466190D01*
X144568571Y-78490000D01*
X144520952Y-78537619D01*
X144497142Y-78585238D01*
X144473333Y-78680476D01*
X144473333Y-78751904D01*
X144497142Y-78847142D01*
X144520952Y-78894761D01*
X144568571Y-78942380D01*
X144640000Y-78966190D01*
X144687619Y-78966190D01*
X144759047Y-78942380D01*
X144782857Y-78918571D01*
X144782857Y-78751904D01*
X144687619Y-78751904D01*
X144997142Y-78966190D02*
X144997142Y-78466190D01*
X145282857Y-78966190D01*
X145282857Y-78466190D01*
X145520952Y-78966190D02*
X145520952Y-78466190D01*
X145640000Y-78466190D01*
X145711428Y-78490000D01*
X145759047Y-78537619D01*
X145782857Y-78585238D01*
X145806666Y-78680476D01*
X145806666Y-78751904D01*
X145782857Y-78847142D01*
X145759047Y-78894761D01*
X145711428Y-78942380D01*
X145640000Y-78966190D01*
X145520952Y-78966190D01*
X127250000Y-79619047D02*
X127273809Y-79571428D01*
X127273809Y-79500000D01*
X127250000Y-79428571D01*
X127202380Y-79380952D01*
X127154761Y-79357142D01*
X127059523Y-79333333D01*
X126988095Y-79333333D01*
X126892857Y-79357142D01*
X126845238Y-79380952D01*
X126797619Y-79428571D01*
X126773809Y-79500000D01*
X126773809Y-79547619D01*
X126797619Y-79619047D01*
X126821428Y-79642857D01*
X126988095Y-79642857D01*
X126988095Y-79547619D01*
X126773809Y-79857142D02*
X127273809Y-79857142D01*
X126773809Y-80142857D01*
X127273809Y-80142857D01*
X126773809Y-80380952D02*
X127273809Y-80380952D01*
X127273809Y-80500000D01*
X127250000Y-80571428D01*
X127202380Y-80619047D01*
X127154761Y-80642857D01*
X127059523Y-80666666D01*
X126988095Y-80666666D01*
X126892857Y-80642857D01*
X126845238Y-80619047D01*
X126797619Y-80571428D01*
X126773809Y-80500000D01*
X126773809Y-80380952D01*
X145079047Y-108296977D02*
X145388571Y-108296977D01*
X145221904Y-108487453D01*
X145293333Y-108487453D01*
X145340952Y-108511263D01*
X145364761Y-108535072D01*
X145388571Y-108582691D01*
X145388571Y-108701739D01*
X145364761Y-108749358D01*
X145340952Y-108773167D01*
X145293333Y-108796977D01*
X145150476Y-108796977D01*
X145102857Y-108773167D01*
X145079047Y-108749358D01*
X145531428Y-108296977D02*
X145698095Y-108796977D01*
X145864761Y-108296977D01*
X125273809Y-79619047D02*
X125273809Y-79928571D01*
X125083333Y-79761904D01*
X125083333Y-79833333D01*
X125059523Y-79880952D01*
X125035714Y-79904761D01*
X124988095Y-79928571D01*
X124869047Y-79928571D01*
X124821428Y-79904761D01*
X124797619Y-79880952D01*
X124773809Y-79833333D01*
X124773809Y-79690476D01*
X124797619Y-79642857D01*
X124821428Y-79619047D01*
X125273809Y-80071428D02*
X124773809Y-80238095D01*
X125273809Y-80404761D01*
X120838095Y-100351190D02*
X120838095Y-99851190D01*
X121171428Y-99851190D02*
X121266666Y-99851190D01*
X121314285Y-99875000D01*
X121361904Y-99922619D01*
X121385714Y-100017857D01*
X121385714Y-100184523D01*
X121361904Y-100279761D01*
X121314285Y-100327380D01*
X121266666Y-100351190D01*
X121171428Y-100351190D01*
X121123809Y-100327380D01*
X121076190Y-100279761D01*
X121052380Y-100184523D01*
X121052380Y-100017857D01*
X121076190Y-99922619D01*
X121123809Y-99875000D01*
X121171428Y-99851190D01*
X122797619Y-79392857D02*
X122773809Y-79464285D01*
X122773809Y-79583333D01*
X122797619Y-79630952D01*
X122821428Y-79654761D01*
X122869047Y-79678571D01*
X122916666Y-79678571D01*
X122964285Y-79654761D01*
X122988095Y-79630952D01*
X123011904Y-79583333D01*
X123035714Y-79488095D01*
X123059523Y-79440476D01*
X123083333Y-79416666D01*
X123130952Y-79392857D01*
X123178571Y-79392857D01*
X123226190Y-79416666D01*
X123250000Y-79440476D01*
X123273809Y-79488095D01*
X123273809Y-79607142D01*
X123250000Y-79678571D01*
X122773809Y-79892857D02*
X123273809Y-79892857D01*
X123273809Y-80011904D01*
X123250000Y-80083333D01*
X123202380Y-80130952D01*
X123154761Y-80154761D01*
X123059523Y-80178571D01*
X122988095Y-80178571D01*
X122892857Y-80154761D01*
X122845238Y-80130952D01*
X122797619Y-80083333D01*
X122773809Y-80011904D01*
X122773809Y-79892857D01*
X122916666Y-80369047D02*
X122916666Y-80607142D01*
X122773809Y-80321428D02*
X123273809Y-80488095D01*
X122773809Y-80654761D01*
X158584047Y-84055403D02*
X158869761Y-84055403D01*
X158726904Y-84555403D02*
X158726904Y-84055403D01*
X158988809Y-84055403D02*
X159322142Y-84555403D01*
X159322142Y-84055403D02*
X158988809Y-84555403D01*
X159512619Y-84555403D02*
X159512619Y-84055403D01*
X159631666Y-84055403D01*
X159703095Y-84079213D01*
X159750714Y-84126832D01*
X159774523Y-84174451D01*
X159798333Y-84269689D01*
X159798333Y-84341117D01*
X159774523Y-84436355D01*
X159750714Y-84483974D01*
X159703095Y-84531593D01*
X159631666Y-84555403D01*
X159512619Y-84555403D01*
X120797619Y-79404761D02*
X120773809Y-79476190D01*
X120773809Y-79595238D01*
X120797619Y-79642857D01*
X120821428Y-79666666D01*
X120869047Y-79690476D01*
X120916666Y-79690476D01*
X120964285Y-79666666D01*
X120988095Y-79642857D01*
X121011904Y-79595238D01*
X121035714Y-79500000D01*
X121059523Y-79452380D01*
X121083333Y-79428571D01*
X121130952Y-79404761D01*
X121178571Y-79404761D01*
X121226190Y-79428571D01*
X121250000Y-79452380D01*
X121273809Y-79500000D01*
X121273809Y-79619047D01*
X121250000Y-79690476D01*
X120821428Y-80190476D02*
X120797619Y-80166666D01*
X120773809Y-80095238D01*
X120773809Y-80047619D01*
X120797619Y-79976190D01*
X120845238Y-79928571D01*
X120892857Y-79904761D01*
X120988095Y-79880952D01*
X121059523Y-79880952D01*
X121154761Y-79904761D01*
X121202380Y-79928571D01*
X121250000Y-79976190D01*
X121273809Y-80047619D01*
X121273809Y-80095238D01*
X121250000Y-80166666D01*
X121226190Y-80190476D01*
X120773809Y-80642857D02*
X120773809Y-80404761D01*
X121273809Y-80404761D01*
X158678333Y-74055403D02*
X158845000Y-74555403D01*
X159011666Y-74055403D01*
X159464047Y-74507784D02*
X159440238Y-74531593D01*
X159368809Y-74555403D01*
X159321190Y-74555403D01*
X159249761Y-74531593D01*
X159202142Y-74483974D01*
X159178333Y-74436355D01*
X159154523Y-74341117D01*
X159154523Y-74269689D01*
X159178333Y-74174451D01*
X159202142Y-74126832D01*
X159249761Y-74079213D01*
X159321190Y-74055403D01*
X159368809Y-74055403D01*
X159440238Y-74079213D01*
X159464047Y-74103022D01*
X159964047Y-74507784D02*
X159940238Y-74531593D01*
X159868809Y-74555403D01*
X159821190Y-74555403D01*
X159749761Y-74531593D01*
X159702142Y-74483974D01*
X159678333Y-74436355D01*
X159654523Y-74341117D01*
X159654523Y-74269689D01*
X159678333Y-74174451D01*
X159702142Y-74126832D01*
X159749761Y-74079213D01*
X159821190Y-74055403D01*
X159868809Y-74055403D01*
X159940238Y-74079213D01*
X159964047Y-74103022D01*
X135056666Y-78966190D02*
X134890000Y-78728095D01*
X134770952Y-78966190D02*
X134770952Y-78466190D01*
X134961428Y-78466190D01*
X135009047Y-78490000D01*
X135032857Y-78513809D01*
X135056666Y-78561428D01*
X135056666Y-78632857D01*
X135032857Y-78680476D01*
X135009047Y-78704285D01*
X134961428Y-78728095D01*
X134770952Y-78728095D01*
X135223333Y-78466190D02*
X135556666Y-78966190D01*
X135556666Y-78466190D02*
X135223333Y-78966190D01*
X158679047Y-105270787D02*
X158631428Y-105246977D01*
X158560000Y-105246977D01*
X158488571Y-105270787D01*
X158440952Y-105318406D01*
X158417142Y-105366025D01*
X158393333Y-105461263D01*
X158393333Y-105532691D01*
X158417142Y-105627929D01*
X158440952Y-105675548D01*
X158488571Y-105723167D01*
X158560000Y-105746977D01*
X158607619Y-105746977D01*
X158679047Y-105723167D01*
X158702857Y-105699358D01*
X158702857Y-105532691D01*
X158607619Y-105532691D01*
X158917142Y-105746977D02*
X158917142Y-105246977D01*
X159202857Y-105746977D01*
X159202857Y-105246977D01*
X159440952Y-105746977D02*
X159440952Y-105246977D01*
X159560000Y-105246977D01*
X159631428Y-105270787D01*
X159679047Y-105318406D01*
X159702857Y-105366025D01*
X159726666Y-105461263D01*
X159726666Y-105532691D01*
X159702857Y-105627929D01*
X159679047Y-105675548D01*
X159631428Y-105723167D01*
X159560000Y-105746977D01*
X159440952Y-105746977D01*
X158372857Y-110703167D02*
X158444285Y-110726977D01*
X158563333Y-110726977D01*
X158610952Y-110703167D01*
X158634761Y-110679358D01*
X158658571Y-110631739D01*
X158658571Y-110584120D01*
X158634761Y-110536501D01*
X158610952Y-110512691D01*
X158563333Y-110488882D01*
X158468095Y-110465072D01*
X158420476Y-110441263D01*
X158396666Y-110417453D01*
X158372857Y-110369834D01*
X158372857Y-110322215D01*
X158396666Y-110274596D01*
X158420476Y-110250787D01*
X158468095Y-110226977D01*
X158587142Y-110226977D01*
X158658571Y-110250787D01*
X158872857Y-110726977D02*
X158872857Y-110226977D01*
X158991904Y-110226977D01*
X159063333Y-110250787D01*
X159110952Y-110298406D01*
X159134761Y-110346025D01*
X159158571Y-110441263D01*
X159158571Y-110512691D01*
X159134761Y-110607929D01*
X159110952Y-110655548D01*
X159063333Y-110703167D01*
X158991904Y-110726977D01*
X158872857Y-110726977D01*
X159349047Y-110584120D02*
X159587142Y-110584120D01*
X159301428Y-110726977D02*
X159468095Y-110226977D01*
X159634761Y-110726977D01*
X120358333Y-97251190D02*
X120525000Y-97751190D01*
X120691666Y-97251190D01*
X121144047Y-97703571D02*
X121120238Y-97727380D01*
X121048809Y-97751190D01*
X121001190Y-97751190D01*
X120929761Y-97727380D01*
X120882142Y-97679761D01*
X120858333Y-97632142D01*
X120834523Y-97536904D01*
X120834523Y-97465476D01*
X120858333Y-97370238D01*
X120882142Y-97322619D01*
X120929761Y-97275000D01*
X121001190Y-97251190D01*
X121048809Y-97251190D01*
X121120238Y-97275000D01*
X121144047Y-97298809D01*
X121644047Y-97703571D02*
X121620238Y-97727380D01*
X121548809Y-97751190D01*
X121501190Y-97751190D01*
X121429761Y-97727380D01*
X121382142Y-97679761D01*
X121358333Y-97632142D01*
X121334523Y-97536904D01*
X121334523Y-97465476D01*
X121358333Y-97370238D01*
X121382142Y-97322619D01*
X121429761Y-97275000D01*
X121501190Y-97251190D01*
X121548809Y-97251190D01*
X121620238Y-97275000D01*
X121644047Y-97298809D01*
X144592380Y-75966190D02*
X144759047Y-76466190D01*
X144925714Y-75966190D01*
X145092380Y-76466190D02*
X145092380Y-75966190D01*
X145330476Y-76466190D02*
X145330476Y-75966190D01*
X145616190Y-76466190D01*
X145616190Y-75966190D01*
X158659047Y-102656977D02*
X158968571Y-102656977D01*
X158801904Y-102847453D01*
X158873333Y-102847453D01*
X158920952Y-102871263D01*
X158944761Y-102895072D01*
X158968571Y-102942691D01*
X158968571Y-103061739D01*
X158944761Y-103109358D01*
X158920952Y-103133167D01*
X158873333Y-103156977D01*
X158730476Y-103156977D01*
X158682857Y-103133167D01*
X158659047Y-103109358D01*
X159111428Y-102656977D02*
X159278095Y-103156977D01*
X159444761Y-102656977D01*
D12*
%TO.C,U1*%
X119462380Y-101349834D02*
X118462380Y-101349834D01*
X118462380Y-101111739D01*
X118510000Y-100968882D01*
X118605238Y-100873644D01*
X118700476Y-100826025D01*
X118890952Y-100778406D01*
X119033809Y-100778406D01*
X119224285Y-100826025D01*
X119319523Y-100873644D01*
X119414761Y-100968882D01*
X119462380Y-101111739D01*
X119462380Y-101349834D01*
X119462380Y-100349834D02*
X118462380Y-100349834D01*
X118938571Y-100349834D02*
X118938571Y-99778406D01*
X119462380Y-99778406D02*
X118462380Y-99778406D01*
X118462380Y-99445072D02*
X118462380Y-98873644D01*
X119462380Y-99159358D02*
X118462380Y-99159358D01*
X119462380Y-98016501D02*
X119462380Y-98587929D01*
X119462380Y-98302215D02*
X118462380Y-98302215D01*
X118605238Y-98397453D01*
X118700476Y-98492691D01*
X118748095Y-98587929D01*
X119462380Y-97064120D02*
X119462380Y-97635548D01*
X119462380Y-97349834D02*
X118462380Y-97349834D01*
X118605238Y-97445072D01*
X118700476Y-97540310D01*
X118748095Y-97635548D01*
%TO.C,MiCS1_1*%
X122452380Y-75452380D02*
X122452380Y-74452380D01*
X122785714Y-75166666D01*
X123119047Y-74452380D01*
X123119047Y-75452380D01*
X123595238Y-75452380D02*
X123595238Y-74785714D01*
X123595238Y-74452380D02*
X123547619Y-74500000D01*
X123595238Y-74547619D01*
X123642857Y-74500000D01*
X123595238Y-74452380D01*
X123595238Y-74547619D01*
X124642857Y-75357142D02*
X124595238Y-75404761D01*
X124452380Y-75452380D01*
X124357142Y-75452380D01*
X124214285Y-75404761D01*
X124119047Y-75309523D01*
X124071428Y-75214285D01*
X124023809Y-75023809D01*
X124023809Y-74880952D01*
X124071428Y-74690476D01*
X124119047Y-74595238D01*
X124214285Y-74500000D01*
X124357142Y-74452380D01*
X124452380Y-74452380D01*
X124595238Y-74500000D01*
X124642857Y-74547619D01*
X125023809Y-75404761D02*
X125166666Y-75452380D01*
X125404761Y-75452380D01*
X125500000Y-75404761D01*
X125547619Y-75357142D01*
X125595238Y-75261904D01*
X125595238Y-75166666D01*
X125547619Y-75071428D01*
X125500000Y-75023809D01*
X125404761Y-74976190D01*
X125214285Y-74928571D01*
X125119047Y-74880952D01*
X125071428Y-74833333D01*
X125023809Y-74738095D01*
X125023809Y-74642857D01*
X125071428Y-74547619D01*
X125119047Y-74500000D01*
X125214285Y-74452380D01*
X125452380Y-74452380D01*
X125595238Y-74500000D01*
%TO.C,Arduino_Nano_33_IOT1*%
X140666666Y-102814285D02*
X140666666Y-102338095D01*
X140952380Y-102909523D02*
X139952380Y-102576190D01*
X140952380Y-102242857D01*
X140952380Y-101909523D02*
X140285714Y-101909523D01*
X140476190Y-101909523D02*
X140380952Y-101861904D01*
X140333333Y-101814285D01*
X140285714Y-101719047D01*
X140285714Y-101623809D01*
X140952380Y-100861904D02*
X139952380Y-100861904D01*
X140904761Y-100861904D02*
X140952380Y-100957142D01*
X140952380Y-101147619D01*
X140904761Y-101242857D01*
X140857142Y-101290476D01*
X140761904Y-101338095D01*
X140476190Y-101338095D01*
X140380952Y-101290476D01*
X140333333Y-101242857D01*
X140285714Y-101147619D01*
X140285714Y-100957142D01*
X140333333Y-100861904D01*
X140285714Y-99957142D02*
X140952380Y-99957142D01*
X140285714Y-100385714D02*
X140809523Y-100385714D01*
X140904761Y-100338095D01*
X140952380Y-100242857D01*
X140952380Y-100100000D01*
X140904761Y-100004761D01*
X140857142Y-99957142D01*
X140952380Y-99480952D02*
X140285714Y-99480952D01*
X139952380Y-99480952D02*
X140000000Y-99528571D01*
X140047619Y-99480952D01*
X140000000Y-99433333D01*
X139952380Y-99480952D01*
X140047619Y-99480952D01*
X140285714Y-99004761D02*
X140952380Y-99004761D01*
X140380952Y-99004761D02*
X140333333Y-98957142D01*
X140285714Y-98861904D01*
X140285714Y-98719047D01*
X140333333Y-98623809D01*
X140428571Y-98576190D01*
X140952380Y-98576190D01*
X140952380Y-97957142D02*
X140904761Y-98052380D01*
X140857142Y-98100000D01*
X140761904Y-98147619D01*
X140476190Y-98147619D01*
X140380952Y-98100000D01*
X140333333Y-98052380D01*
X140285714Y-97957142D01*
X140285714Y-97814285D01*
X140333333Y-97719047D01*
X140380952Y-97671428D01*
X140476190Y-97623809D01*
X140761904Y-97623809D01*
X140857142Y-97671428D01*
X140904761Y-97719047D01*
X140952380Y-97814285D01*
X140952380Y-97957142D01*
X141047619Y-97433333D02*
X141047619Y-96671428D01*
X140952380Y-96433333D02*
X139952380Y-96433333D01*
X140952380Y-95861904D01*
X139952380Y-95861904D01*
X140952380Y-94957142D02*
X140428571Y-94957142D01*
X140333333Y-95004761D01*
X140285714Y-95100000D01*
X140285714Y-95290476D01*
X140333333Y-95385714D01*
X140904761Y-94957142D02*
X140952380Y-95052380D01*
X140952380Y-95290476D01*
X140904761Y-95385714D01*
X140809523Y-95433333D01*
X140714285Y-95433333D01*
X140619047Y-95385714D01*
X140571428Y-95290476D01*
X140571428Y-95052380D01*
X140523809Y-94957142D01*
X140285714Y-94480952D02*
X140952380Y-94480952D01*
X140380952Y-94480952D02*
X140333333Y-94433333D01*
X140285714Y-94338095D01*
X140285714Y-94195238D01*
X140333333Y-94100000D01*
X140428571Y-94052380D01*
X140952380Y-94052380D01*
X140952380Y-93433333D02*
X140904761Y-93528571D01*
X140857142Y-93576190D01*
X140761904Y-93623809D01*
X140476190Y-93623809D01*
X140380952Y-93576190D01*
X140333333Y-93528571D01*
X140285714Y-93433333D01*
X140285714Y-93290476D01*
X140333333Y-93195238D01*
X140380952Y-93147619D01*
X140476190Y-93100000D01*
X140761904Y-93100000D01*
X140857142Y-93147619D01*
X140904761Y-93195238D01*
X140952380Y-93290476D01*
X140952380Y-93433333D01*
X141047619Y-92909523D02*
X141047619Y-92147619D01*
X140952380Y-91909523D02*
X139952380Y-91909523D01*
X139952380Y-91242857D02*
X139952380Y-91052380D01*
X140000000Y-90957142D01*
X140095238Y-90861904D01*
X140285714Y-90814285D01*
X140619047Y-90814285D01*
X140809523Y-90861904D01*
X140904761Y-90957142D01*
X140952380Y-91052380D01*
X140952380Y-91242857D01*
X140904761Y-91338095D01*
X140809523Y-91433333D01*
X140619047Y-91480952D01*
X140285714Y-91480952D01*
X140095238Y-91433333D01*
X140000000Y-91338095D01*
X139952380Y-91242857D01*
X139952380Y-90528571D02*
X139952380Y-89957142D01*
X140952380Y-90242857D02*
X139952380Y-90242857D01*
X141047619Y-89861904D02*
X141047619Y-89100000D01*
X139952380Y-88957142D02*
X139952380Y-88338095D01*
X140333333Y-88671428D01*
X140333333Y-88528571D01*
X140380952Y-88433333D01*
X140428571Y-88385714D01*
X140523809Y-88338095D01*
X140761904Y-88338095D01*
X140857142Y-88385714D01*
X140904761Y-88433333D01*
X140952380Y-88528571D01*
X140952380Y-88814285D01*
X140904761Y-88909523D01*
X140857142Y-88957142D01*
X139952380Y-88004761D02*
X139952380Y-87385714D01*
X140333333Y-87719047D01*
X140333333Y-87576190D01*
X140380952Y-87480952D01*
X140428571Y-87433333D01*
X140523809Y-87385714D01*
X140761904Y-87385714D01*
X140857142Y-87433333D01*
X140904761Y-87480952D01*
X140952380Y-87576190D01*
X140952380Y-87861904D01*
X140904761Y-87957142D01*
X140857142Y-88004761D01*
%TO.C,CCS811_1*%
X165542857Y-108034761D02*
X165495238Y-107987142D01*
X165447619Y-107844285D01*
X165447619Y-107749047D01*
X165495238Y-107606190D01*
X165590476Y-107510952D01*
X165685714Y-107463333D01*
X165876190Y-107415714D01*
X166019047Y-107415714D01*
X166209523Y-107463333D01*
X166304761Y-107510952D01*
X166400000Y-107606190D01*
X166447619Y-107749047D01*
X166447619Y-107844285D01*
X166400000Y-107987142D01*
X166352380Y-108034761D01*
X165542857Y-109034761D02*
X165495238Y-108987142D01*
X165447619Y-108844285D01*
X165447619Y-108749047D01*
X165495238Y-108606190D01*
X165590476Y-108510952D01*
X165685714Y-108463333D01*
X165876190Y-108415714D01*
X166019047Y-108415714D01*
X166209523Y-108463333D01*
X166304761Y-108510952D01*
X166400000Y-108606190D01*
X166447619Y-108749047D01*
X166447619Y-108844285D01*
X166400000Y-108987142D01*
X166352380Y-109034761D01*
X165495238Y-109415714D02*
X165447619Y-109558571D01*
X165447619Y-109796666D01*
X165495238Y-109891904D01*
X165542857Y-109939523D01*
X165638095Y-109987142D01*
X165733333Y-109987142D01*
X165828571Y-109939523D01*
X165876190Y-109891904D01*
X165923809Y-109796666D01*
X165971428Y-109606190D01*
X166019047Y-109510952D01*
X166066666Y-109463333D01*
X166161904Y-109415714D01*
X166257142Y-109415714D01*
X166352380Y-109463333D01*
X166400000Y-109510952D01*
X166447619Y-109606190D01*
X166447619Y-109844285D01*
X166400000Y-109987142D01*
X166019047Y-110558571D02*
X166066666Y-110463333D01*
X166114285Y-110415714D01*
X166209523Y-110368095D01*
X166257142Y-110368095D01*
X166352380Y-110415714D01*
X166400000Y-110463333D01*
X166447619Y-110558571D01*
X166447619Y-110749047D01*
X166400000Y-110844285D01*
X166352380Y-110891904D01*
X166257142Y-110939523D01*
X166209523Y-110939523D01*
X166114285Y-110891904D01*
X166066666Y-110844285D01*
X166019047Y-110749047D01*
X166019047Y-110558571D01*
X165971428Y-110463333D01*
X165923809Y-110415714D01*
X165828571Y-110368095D01*
X165638095Y-110368095D01*
X165542857Y-110415714D01*
X165495238Y-110463333D01*
X165447619Y-110558571D01*
X165447619Y-110749047D01*
X165495238Y-110844285D01*
X165542857Y-110891904D01*
X165638095Y-110939523D01*
X165828571Y-110939523D01*
X165923809Y-110891904D01*
X165971428Y-110844285D01*
X166019047Y-110749047D01*
X165447619Y-111891904D02*
X165447619Y-111320476D01*
X165447619Y-111606190D02*
X166447619Y-111606190D01*
X166304761Y-111510952D01*
X166209523Y-111415714D01*
X166161904Y-111320476D01*
X165447619Y-112844285D02*
X165447619Y-112272857D01*
X165447619Y-112558571D02*
X166447619Y-112558571D01*
X166304761Y-112463333D01*
X166209523Y-112368095D01*
X166161904Y-112272857D01*
%TO.C,PMS5003_1*%
X164947619Y-80085714D02*
X165947619Y-80085714D01*
X165947619Y-80466666D01*
X165900000Y-80561904D01*
X165852380Y-80609523D01*
X165757142Y-80657142D01*
X165614285Y-80657142D01*
X165519047Y-80609523D01*
X165471428Y-80561904D01*
X165423809Y-80466666D01*
X165423809Y-80085714D01*
X164947619Y-81085714D02*
X165947619Y-81085714D01*
X165233333Y-81419047D01*
X165947619Y-81752380D01*
X164947619Y-81752380D01*
X164995238Y-82180952D02*
X164947619Y-82323809D01*
X164947619Y-82561904D01*
X164995238Y-82657142D01*
X165042857Y-82704761D01*
X165138095Y-82752380D01*
X165233333Y-82752380D01*
X165328571Y-82704761D01*
X165376190Y-82657142D01*
X165423809Y-82561904D01*
X165471428Y-82371428D01*
X165519047Y-82276190D01*
X165566666Y-82228571D01*
X165661904Y-82180952D01*
X165757142Y-82180952D01*
X165852380Y-82228571D01*
X165900000Y-82276190D01*
X165947619Y-82371428D01*
X165947619Y-82609523D01*
X165900000Y-82752380D01*
X165947619Y-83657142D02*
X165947619Y-83180952D01*
X165471428Y-83133333D01*
X165519047Y-83180952D01*
X165566666Y-83276190D01*
X165566666Y-83514285D01*
X165519047Y-83609523D01*
X165471428Y-83657142D01*
X165376190Y-83704761D01*
X165138095Y-83704761D01*
X165042857Y-83657142D01*
X164995238Y-83609523D01*
X164947619Y-83514285D01*
X164947619Y-83276190D01*
X164995238Y-83180952D01*
X165042857Y-83133333D01*
X165947619Y-84323809D02*
X165947619Y-84419047D01*
X165900000Y-84514285D01*
X165852380Y-84561904D01*
X165757142Y-84609523D01*
X165566666Y-84657142D01*
X165328571Y-84657142D01*
X165138095Y-84609523D01*
X165042857Y-84561904D01*
X164995238Y-84514285D01*
X164947619Y-84419047D01*
X164947619Y-84323809D01*
X164995238Y-84228571D01*
X165042857Y-84180952D01*
X165138095Y-84133333D01*
X165328571Y-84085714D01*
X165566666Y-84085714D01*
X165757142Y-84133333D01*
X165852380Y-84180952D01*
X165900000Y-84228571D01*
X165947619Y-84323809D01*
X165947619Y-85276190D02*
X165947619Y-85371428D01*
X165900000Y-85466666D01*
X165852380Y-85514285D01*
X165757142Y-85561904D01*
X165566666Y-85609523D01*
X165328571Y-85609523D01*
X165138095Y-85561904D01*
X165042857Y-85514285D01*
X164995238Y-85466666D01*
X164947619Y-85371428D01*
X164947619Y-85276190D01*
X164995238Y-85180952D01*
X165042857Y-85133333D01*
X165138095Y-85085714D01*
X165328571Y-85038095D01*
X165566666Y-85038095D01*
X165757142Y-85085714D01*
X165852380Y-85133333D01*
X165900000Y-85180952D01*
X165947619Y-85276190D01*
X165947619Y-85942857D02*
X165947619Y-86561904D01*
X165566666Y-86228571D01*
X165566666Y-86371428D01*
X165519047Y-86466666D01*
X165471428Y-86514285D01*
X165376190Y-86561904D01*
X165138095Y-86561904D01*
X165042857Y-86514285D01*
X164995238Y-86466666D01*
X164947619Y-86371428D01*
X164947619Y-86085714D01*
X164995238Y-85990476D01*
X165042857Y-85942857D01*
%TO.C,G\u002A\u002A\u002A*%
G36*
X126226008Y-119429515D02*
G01*
X126236682Y-119476237D01*
X126236685Y-119477428D01*
X126236685Y-119538655D01*
X126309449Y-119477428D01*
X126377055Y-119433572D01*
X126437647Y-119416435D01*
X126480980Y-119426780D01*
X126496834Y-119463501D01*
X126482121Y-119501311D01*
X126440899Y-119510801D01*
X126383026Y-119525226D01*
X126322649Y-119559817D01*
X126294744Y-119584056D01*
X126276721Y-119610787D01*
X126266424Y-119650238D01*
X126261698Y-119712637D01*
X126260387Y-119808213D01*
X126260335Y-119855441D01*
X126260335Y-120102049D01*
X126142086Y-120102049D01*
X126142086Y-119759125D01*
X126142415Y-119625422D01*
X126144060Y-119531873D01*
X126148007Y-119471334D01*
X126155240Y-119436659D01*
X126166745Y-119420705D01*
X126183508Y-119416326D01*
X126189385Y-119416201D01*
X126226008Y-119429515D01*
G37*
G36*
X123432285Y-119402596D02*
G01*
X123451244Y-119420121D01*
X123469634Y-119435502D01*
X123514476Y-119428319D01*
X123538793Y-119420374D01*
X123642905Y-119405191D01*
X123741031Y-119428077D01*
X123821173Y-119483858D01*
X123869925Y-119563190D01*
X123881026Y-119618572D01*
X123889669Y-119706486D01*
X123894628Y-119812182D01*
X123895344Y-119869079D01*
X123895344Y-120102049D01*
X123753445Y-120102049D01*
X123753445Y-119857390D01*
X123750266Y-119725821D01*
X123738670Y-119634516D01*
X123715572Y-119576740D01*
X123677885Y-119545758D01*
X123622524Y-119534836D01*
X123605460Y-119534451D01*
X123550111Y-119540937D01*
X123511781Y-119564971D01*
X123487566Y-119613414D01*
X123474564Y-119693129D01*
X123469869Y-119810979D01*
X123469646Y-119855414D01*
X123469646Y-120102049D01*
X123327747Y-120102049D01*
X123327747Y-119392551D01*
X123384901Y-119392551D01*
X123432285Y-119402596D01*
G37*
G36*
X124818895Y-119660425D02*
G01*
X124824586Y-119593905D01*
X124837877Y-119548323D01*
X124861885Y-119510505D01*
X124882728Y-119486064D01*
X124969417Y-119421934D01*
X125072746Y-119398098D01*
X125182015Y-119416253D01*
X125219410Y-119432700D01*
X125284732Y-119475348D01*
X125327075Y-119529102D01*
X125350194Y-119603760D01*
X125357844Y-119709118D01*
X125356589Y-119790628D01*
X125352209Y-119888425D01*
X125344528Y-119951967D01*
X125329428Y-119994291D01*
X125302793Y-120028435D01*
X125272578Y-120056689D01*
X125179134Y-120110420D01*
X125070121Y-120126238D01*
X124959993Y-120102786D01*
X124930622Y-120088833D01*
X124879732Y-120054033D01*
X124846465Y-120009005D01*
X124827374Y-119943745D01*
X124819010Y-119848245D01*
X124818441Y-119810634D01*
X124909210Y-119810634D01*
X124921820Y-119903235D01*
X124949526Y-119971607D01*
X124959590Y-119983799D01*
X125027869Y-120022846D01*
X125109036Y-120029399D01*
X125183657Y-120003651D01*
X125210161Y-119981316D01*
X125234928Y-119943315D01*
X125248927Y-119889387D01*
X125254661Y-119806928D01*
X125255214Y-119754552D01*
X125253581Y-119661070D01*
X125246530Y-119601978D01*
X125230828Y-119564418D01*
X125203244Y-119535532D01*
X125199382Y-119532361D01*
X125119328Y-119492021D01*
X125039415Y-119494385D01*
X124970486Y-119538674D01*
X124961307Y-119549465D01*
X124929017Y-119617548D01*
X124911630Y-119710005D01*
X124909210Y-119810634D01*
X124818441Y-119810634D01*
X124817691Y-119761053D01*
X124818895Y-119660425D01*
G37*
G36*
X126870617Y-119413931D02*
G01*
X126969832Y-119464984D01*
X127008638Y-119498522D01*
X127012426Y-119520045D01*
X126984261Y-119545686D01*
X126948083Y-119566042D01*
X126913942Y-119557516D01*
X126880560Y-119533565D01*
X126798182Y-119492515D01*
X126716599Y-119498544D01*
X126660025Y-119531605D01*
X126629322Y-119564198D01*
X126610725Y-119609172D01*
X126600103Y-119679955D01*
X126595846Y-119740305D01*
X126592645Y-119830829D01*
X126597751Y-119889613D01*
X126614323Y-119931939D01*
X126643534Y-119970781D01*
X126713896Y-120023739D01*
X126791463Y-120035387D01*
X126864816Y-120004452D01*
X126874257Y-119996507D01*
X126923832Y-119968181D01*
X126960200Y-119963989D01*
X127002596Y-119983449D01*
X127007512Y-120013423D01*
X126981899Y-120048204D01*
X126932712Y-120082087D01*
X126866901Y-120109365D01*
X126791420Y-120124334D01*
X126763269Y-120125610D01*
X126679136Y-120115085D01*
X126609170Y-120076295D01*
X126585894Y-120056689D01*
X126547838Y-120020091D01*
X126524421Y-119985144D01*
X126511527Y-119938811D01*
X126505039Y-119868054D01*
X126501884Y-119790628D01*
X126502032Y-119662522D01*
X126515364Y-119571038D01*
X126545775Y-119506419D01*
X126597156Y-119458907D01*
X126645035Y-119431894D01*
X126756726Y-119401743D01*
X126870617Y-119413931D01*
G37*
G36*
X125971328Y-119418590D02*
G01*
X125984231Y-119430517D01*
X125992582Y-119459129D01*
X125997364Y-119511570D01*
X125999565Y-119594983D01*
X126000169Y-119716515D01*
X126000186Y-119759125D01*
X125999857Y-119892828D01*
X125998212Y-119986377D01*
X125994265Y-120046916D01*
X125987032Y-120081591D01*
X125975527Y-120097545D01*
X125958763Y-120101924D01*
X125952886Y-120102049D01*
X125914095Y-120086153D01*
X125905586Y-120050626D01*
X125905586Y-119999204D01*
X125850850Y-120050626D01*
X125771308Y-120095528D01*
X125677755Y-120103858D01*
X125585156Y-120076432D01*
X125525369Y-120032918D01*
X125495779Y-120001746D01*
X125476128Y-119971977D01*
X125464382Y-119933524D01*
X125458508Y-119876296D01*
X125456472Y-119790203D01*
X125456238Y-119689994D01*
X125456734Y-119572681D01*
X125459139Y-119494689D01*
X125464832Y-119448040D01*
X125475191Y-119424759D01*
X125491593Y-119416870D01*
X125503538Y-119416201D01*
X125524602Y-119419304D01*
X125538278Y-119434174D01*
X125546150Y-119469157D01*
X125549801Y-119532598D01*
X125550812Y-119632842D01*
X125550838Y-119665600D01*
X125551586Y-119778213D01*
X125555160Y-119854088D01*
X125563553Y-119903781D01*
X125578756Y-119937847D01*
X125602765Y-119966840D01*
X125608888Y-119973049D01*
X125668816Y-120019470D01*
X125727809Y-120027587D01*
X125795441Y-120004841D01*
X125842960Y-119972571D01*
X125875365Y-119921516D01*
X125894983Y-119843961D01*
X125904140Y-119732197D01*
X125905586Y-119639763D01*
X125906307Y-119535646D01*
X125909711Y-119470027D01*
X125917657Y-119434111D01*
X125932007Y-119419103D01*
X125952886Y-119416201D01*
X125971328Y-119418590D01*
G37*
G36*
X122707017Y-119549794D02*
G01*
X122730614Y-119513963D01*
X122769127Y-119473443D01*
X122769609Y-119472961D01*
X122831644Y-119420063D01*
X122890649Y-119396748D01*
X122948158Y-119392551D01*
X123070826Y-119412331D01*
X123165895Y-119468830D01*
X123229083Y-119557793D01*
X123256104Y-119674963D01*
X123256797Y-119699241D01*
X123256797Y-119770950D01*
X122831099Y-119770950D01*
X122831099Y-119850059D01*
X122848456Y-119933250D01*
X122893764Y-119985970D01*
X122956878Y-120003509D01*
X123027652Y-119981161D01*
X123059927Y-119956246D01*
X123104801Y-119922398D01*
X123145568Y-119921216D01*
X123176261Y-119933216D01*
X123218041Y-119956769D01*
X123221728Y-119982478D01*
X123203504Y-120013981D01*
X123130684Y-120083908D01*
X123025986Y-120119859D01*
X122952896Y-120125350D01*
X122879453Y-120118976D01*
X122822941Y-120092465D01*
X122769609Y-120045289D01*
X122730925Y-120004654D01*
X122707195Y-119968841D01*
X122694765Y-119924852D01*
X122689984Y-119859690D01*
X122689199Y-119760358D01*
X122689199Y-119759125D01*
X122689962Y-119659378D01*
X122691886Y-119632716D01*
X122831099Y-119632716D01*
X122837410Y-119657235D01*
X122863387Y-119670485D01*
X122919596Y-119675712D01*
X122972998Y-119676350D01*
X123055393Y-119673626D01*
X123099630Y-119663968D01*
X123114618Y-119645150D01*
X123114897Y-119640875D01*
X123095130Y-119590506D01*
X123047654Y-119542851D01*
X122990214Y-119513724D01*
X122968948Y-119510801D01*
X122905530Y-119529076D01*
X122853875Y-119573770D01*
X122831166Y-119629685D01*
X122831099Y-119632716D01*
X122691886Y-119632716D01*
X122694684Y-119593934D01*
X122707017Y-119549794D01*
G37*
G36*
X124578553Y-119412788D02*
G01*
X124648909Y-119439433D01*
X124697963Y-119473601D01*
X124716559Y-119510885D01*
X124702937Y-119540415D01*
X124671625Y-119553883D01*
X124623970Y-119537242D01*
X124606873Y-119527588D01*
X124536185Y-119500350D01*
X124453779Y-119488549D01*
X124377939Y-119492970D01*
X124326950Y-119514396D01*
X124325773Y-119515531D01*
X124295507Y-119569101D01*
X124309762Y-119620953D01*
X124365774Y-119668145D01*
X124460780Y-119707734D01*
X124521100Y-119723548D01*
X124595915Y-119744043D01*
X124654082Y-119766686D01*
X124671375Y-119777099D01*
X124718761Y-119843709D01*
X124730757Y-119924696D01*
X124709412Y-120005530D01*
X124656777Y-120071682D01*
X124627102Y-120090942D01*
X124547925Y-120114929D01*
X124448173Y-120123439D01*
X124352279Y-120115534D01*
X124308397Y-120103195D01*
X124252531Y-120068911D01*
X124216957Y-120025746D01*
X124212592Y-119987384D01*
X124213978Y-119984835D01*
X124245169Y-119962024D01*
X124292660Y-119975911D01*
X124338239Y-120007449D01*
X124424050Y-120048494D01*
X124514478Y-120046645D01*
X124575929Y-120017933D01*
X124623212Y-119967268D01*
X124625800Y-119916094D01*
X124586151Y-119867612D01*
X124506727Y-119825018D01*
X124404199Y-119794571D01*
X124300886Y-119762906D01*
X124237696Y-119719683D01*
X124207727Y-119658436D01*
X124202793Y-119605858D01*
X124223868Y-119514742D01*
X124283835Y-119446385D01*
X124377811Y-119405634D01*
X124410560Y-119399694D01*
X124496052Y-119398073D01*
X124578553Y-119412788D01*
G37*
G36*
X122107806Y-119392551D02*
G01*
X122155190Y-119402596D01*
X122174149Y-119420121D01*
X122192368Y-119435476D01*
X122236830Y-119428466D01*
X122262361Y-119420142D01*
X122366777Y-119404951D01*
X122466128Y-119427848D01*
X122546660Y-119484491D01*
X122571940Y-119517915D01*
X122598662Y-119589767D01*
X122614769Y-119688991D01*
X122619456Y-119797354D01*
X122611916Y-119896621D01*
X122591832Y-119967616D01*
X122528393Y-120043895D01*
X122439230Y-120091075D01*
X122339068Y-120104579D01*
X122242634Y-120079825D01*
X122238296Y-120077567D01*
X122216696Y-120068683D01*
X122203243Y-120075494D01*
X122196015Y-120105944D01*
X122193092Y-120167980D01*
X122192551Y-120266766D01*
X122192551Y-120480447D01*
X122050652Y-120480447D01*
X122050652Y-119793726D01*
X122191192Y-119793726D01*
X122202915Y-119877072D01*
X122228261Y-119936445D01*
X122231691Y-119940550D01*
X122293403Y-119977177D01*
X122367423Y-119978289D01*
X122433100Y-119944659D01*
X122460066Y-119894948D01*
X122475268Y-119816592D01*
X122478423Y-119726832D01*
X122469252Y-119642908D01*
X122447473Y-119582061D01*
X122439186Y-119571615D01*
X122377420Y-119539690D01*
X122302771Y-119540178D01*
X122236603Y-119572871D01*
X122235801Y-119573591D01*
X122207829Y-119624612D01*
X122192894Y-119703782D01*
X122191192Y-119793726D01*
X122050652Y-119793726D01*
X122050652Y-119392551D01*
X122107806Y-119392551D01*
G37*
G36*
X121408731Y-119583373D02*
G01*
X121449662Y-119491130D01*
X121482947Y-119451773D01*
X121550484Y-119416241D01*
X121643084Y-119398511D01*
X121741426Y-119400024D01*
X121826194Y-119422223D01*
X121833185Y-119425638D01*
X121887527Y-119460000D01*
X121923312Y-119502693D01*
X121944154Y-119563692D01*
X121953663Y-119652976D01*
X121955526Y-119763483D01*
X121951218Y-119887043D01*
X121936335Y-119973886D01*
X121906836Y-120034142D01*
X121858683Y-120077940D01*
X121821620Y-120099281D01*
X121732843Y-120122873D01*
X121628995Y-120119193D01*
X121532591Y-120089688D01*
X121514068Y-120079541D01*
X121453737Y-120017382D01*
X121412417Y-119924166D01*
X121390729Y-119812412D01*
X121389456Y-119708026D01*
X121528728Y-119708026D01*
X121531921Y-119805643D01*
X121551939Y-119897361D01*
X121587573Y-119967430D01*
X121610756Y-119989349D01*
X121675611Y-120007002D01*
X121744117Y-119985258D01*
X121788786Y-119945135D01*
X121824467Y-119870627D01*
X121838551Y-119776622D01*
X121832209Y-119678648D01*
X121806611Y-119592228D01*
X121762928Y-119532888D01*
X121757400Y-119528901D01*
X121693280Y-119511450D01*
X121621595Y-119527711D01*
X121577654Y-119558101D01*
X121543569Y-119620262D01*
X121528728Y-119708026D01*
X121389456Y-119708026D01*
X121389293Y-119694641D01*
X121408731Y-119583373D01*
G37*
G36*
X127116119Y-119539658D02*
G01*
X127157937Y-119475647D01*
X127224311Y-119432550D01*
X127277325Y-119413394D01*
X127386030Y-119402536D01*
X127483273Y-119433251D01*
X127561257Y-119499957D01*
X127612182Y-119597069D01*
X127626020Y-119663053D01*
X127638181Y-119770950D01*
X127182681Y-119770950D01*
X127182681Y-119853725D01*
X127202248Y-119943271D01*
X127256940Y-120004240D01*
X127340747Y-120030520D01*
X127357160Y-120031099D01*
X127420712Y-120021161D01*
X127465189Y-119997098D01*
X127466480Y-119995624D01*
X127506006Y-119965608D01*
X127527105Y-119960149D01*
X127567074Y-119975298D01*
X127572642Y-120012788D01*
X127542274Y-120060416D01*
X127477183Y-120098007D01*
X127387100Y-120117337D01*
X127291333Y-120116723D01*
X127209191Y-120094479D01*
X127201013Y-120090190D01*
X127149768Y-120054098D01*
X127116421Y-120008203D01*
X127097433Y-119942279D01*
X127089265Y-119846097D01*
X127088082Y-119763869D01*
X127093762Y-119644998D01*
X127182681Y-119644998D01*
X127185666Y-119673762D01*
X127201470Y-119690228D01*
X127240369Y-119697810D01*
X127312639Y-119699922D01*
X127348231Y-119700000D01*
X127434721Y-119699131D01*
X127484222Y-119694068D01*
X127507038Y-119681132D01*
X127513479Y-119656641D01*
X127513780Y-119640875D01*
X127492589Y-119569887D01*
X127438835Y-119514048D01*
X127367248Y-119487679D01*
X127355668Y-119487151D01*
X127285731Y-119506172D01*
X127224433Y-119553767D01*
X127187336Y-119615740D01*
X127182681Y-119644998D01*
X127093762Y-119644998D01*
X127094338Y-119632944D01*
X127116119Y-119539658D01*
G37*
G36*
X119302803Y-117775262D02*
G01*
X119417966Y-117780526D01*
X119512160Y-117790967D01*
X119598518Y-117807928D01*
X119668762Y-117826513D01*
X119955853Y-117932508D01*
X120219562Y-118077619D01*
X120456495Y-118258402D01*
X120663256Y-118471411D01*
X120836453Y-118713203D01*
X120972688Y-118980332D01*
X121060696Y-119238827D01*
X121094349Y-119413471D01*
X121112174Y-119613715D01*
X121113947Y-119821631D01*
X121099442Y-120019289D01*
X121072429Y-120172998D01*
X120991746Y-120421382D01*
X120874529Y-120666480D01*
X120727697Y-120897291D01*
X120558170Y-121102816D01*
X120389151Y-121259279D01*
X120303596Y-121321822D01*
X120202374Y-121387283D01*
X120095621Y-121450073D01*
X119993472Y-121504604D01*
X119906063Y-121545285D01*
X119843529Y-121566529D01*
X119828703Y-121568343D01*
X119812535Y-121560033D01*
X119791912Y-121532290D01*
X119764959Y-121480899D01*
X119729805Y-121401643D01*
X119684575Y-121290304D01*
X119627396Y-121142666D01*
X119558211Y-120959358D01*
X119498513Y-120799280D01*
X119444678Y-120653709D01*
X119398837Y-120528506D01*
X119363123Y-120429533D01*
X119339665Y-120362651D01*
X119330596Y-120333723D01*
X119330556Y-120333243D01*
X119349634Y-120311886D01*
X119395684Y-120282676D01*
X119401543Y-120279588D01*
X119540881Y-120184377D01*
X119646311Y-120064723D01*
X119716510Y-119927817D01*
X119750152Y-119780846D01*
X119745914Y-119631000D01*
X119702470Y-119485470D01*
X119618496Y-119351443D01*
X119580252Y-119309548D01*
X119453598Y-119209212D01*
X119314126Y-119151867D01*
X119154309Y-119134743D01*
X119109769Y-119136456D01*
X118946845Y-119167147D01*
X118809756Y-119237354D01*
X118697049Y-119347961D01*
X118651938Y-119414397D01*
X118579364Y-119573854D01*
X118553321Y-119730186D01*
X118573050Y-119881068D01*
X118637789Y-120024174D01*
X118746778Y-120157178D01*
X118899255Y-120277755D01*
X118943429Y-120305297D01*
X118957387Y-120316715D01*
X118964166Y-120334747D01*
X118962198Y-120365474D01*
X118949912Y-120414981D01*
X118925741Y-120489351D01*
X118888115Y-120594668D01*
X118835465Y-120737016D01*
X118824484Y-120766470D01*
X118746338Y-120975898D01*
X118682925Y-121145273D01*
X118632415Y-121278844D01*
X118592974Y-121380861D01*
X118562769Y-121455574D01*
X118539969Y-121507232D01*
X118522740Y-121540085D01*
X118509250Y-121558384D01*
X118497666Y-121566379D01*
X118486157Y-121568318D01*
X118478718Y-121568343D01*
X118438211Y-121557875D01*
X118369069Y-121530028D01*
X118284146Y-121490139D01*
X118256537Y-121476116D01*
X118000857Y-121317679D01*
X117773696Y-121123353D01*
X117578325Y-120897248D01*
X117418016Y-120643473D01*
X117296040Y-120366137D01*
X117247382Y-120208473D01*
X117218619Y-120060912D01*
X117200683Y-119886382D01*
X117194034Y-119701812D01*
X117199130Y-119524133D01*
X117216433Y-119370273D01*
X117223602Y-119333427D01*
X117309743Y-119043351D01*
X117437018Y-118774739D01*
X117606654Y-118525462D01*
X117819878Y-118293393D01*
X117827463Y-118286200D01*
X117937429Y-118186595D01*
X118033729Y-118111213D01*
X118133355Y-118048258D01*
X118253298Y-117985931D01*
X118274910Y-117975516D01*
X118441030Y-117899431D01*
X118581511Y-117844813D01*
X118710977Y-117808305D01*
X118844051Y-117786549D01*
X118995356Y-117776189D01*
X119153538Y-117773834D01*
X119302803Y-117775262D01*
G37*
D13*
%TO.C,U1*%
X119840000Y-92400000D02*
X121450000Y-92400000D01*
X125880000Y-104940000D02*
X120120000Y-104940000D01*
X120120000Y-104940000D02*
X120120000Y-92690000D01*
X120130000Y-92680000D02*
X125870000Y-92680000D01*
X125880000Y-92680000D02*
X125880000Y-104940000D01*
X119840000Y-92400000D02*
X119840000Y-94400000D01*
%TO.C,G\u002A\u002A\u002A*%
G36*
X119076419Y-111362144D02*
G01*
X119167801Y-111374758D01*
X119356115Y-111419272D01*
X119532294Y-111481307D01*
X119697135Y-111561287D01*
X119851433Y-111659637D01*
X119995985Y-111776780D01*
X120087109Y-111865297D01*
X120171051Y-111957072D01*
X120241159Y-112044277D01*
X120302120Y-112133134D01*
X120350489Y-112215053D01*
X120417118Y-112347990D01*
X120469807Y-112482626D01*
X120509584Y-112622908D01*
X120537475Y-112772783D01*
X120554507Y-112936196D01*
X120558940Y-113016076D01*
X120569752Y-113163909D01*
X120589647Y-113296450D01*
X120619665Y-113418273D01*
X120660846Y-113533954D01*
X120692887Y-113605528D01*
X120772762Y-113747800D01*
X120869524Y-113879931D01*
X120981037Y-114000019D01*
X121105168Y-114106166D01*
X121239781Y-114196473D01*
X121382744Y-114269039D01*
X121480211Y-114306152D01*
X121568030Y-114333355D01*
X121646055Y-114352628D01*
X121721706Y-114365140D01*
X121802399Y-114372062D01*
X121895555Y-114374564D01*
X121914262Y-114374636D01*
X122010035Y-114373023D01*
X122092135Y-114367203D01*
X122168101Y-114356049D01*
X122245472Y-114338436D01*
X122331787Y-114313237D01*
X122337595Y-114311402D01*
X122381019Y-114295925D01*
X122432524Y-114274965D01*
X122487112Y-114250857D01*
X122539789Y-114225934D01*
X122585557Y-114202530D01*
X122619419Y-114182978D01*
X122632321Y-114173749D01*
X122653181Y-114159271D01*
X122680790Y-114143670D01*
X122680836Y-114143647D01*
X122709280Y-114125398D01*
X122748170Y-114095237D01*
X122793327Y-114056919D01*
X122840570Y-114014200D01*
X122885721Y-113970836D01*
X122924599Y-113930585D01*
X122948208Y-113903358D01*
X122974459Y-113870664D01*
X122996693Y-113842965D01*
X123010375Y-113825913D01*
X123010921Y-113825232D01*
X123037600Y-113789648D01*
X123063666Y-113749430D01*
X123091815Y-113700032D01*
X123124743Y-113636906D01*
X123136843Y-113612836D01*
X123160822Y-113566678D01*
X123181121Y-113531166D01*
X123196031Y-113509058D01*
X123203844Y-113503111D01*
X123204356Y-113503943D01*
X123229741Y-113579912D01*
X123250833Y-113640365D01*
X123269518Y-113690312D01*
X123287680Y-113734764D01*
X123307206Y-113778731D01*
X123310217Y-113785264D01*
X123353695Y-113879263D01*
X123317873Y-113929948D01*
X123261106Y-114008615D01*
X123211408Y-114073405D01*
X123164945Y-114128894D01*
X123117882Y-114179660D01*
X123066386Y-114230281D01*
X123065907Y-114230734D01*
X122920273Y-114354456D01*
X122764894Y-114459128D01*
X122599573Y-114544849D01*
X122424110Y-114611714D01*
X122238308Y-114659823D01*
X122166118Y-114673016D01*
X122095287Y-114681230D01*
X122009896Y-114685908D01*
X121916512Y-114687116D01*
X121821705Y-114684922D01*
X121732044Y-114679392D01*
X121654098Y-114670594D01*
X121635612Y-114667615D01*
X121452673Y-114624906D01*
X121276571Y-114562131D01*
X121108408Y-114479877D01*
X120949279Y-114378728D01*
X120800286Y-114259273D01*
X120712321Y-114175088D01*
X120659939Y-114119730D01*
X120615583Y-114068205D01*
X120574920Y-114014812D01*
X120533619Y-113953848D01*
X120487350Y-113879610D01*
X120485183Y-113876033D01*
X120405205Y-113727429D01*
X120342219Y-113573041D01*
X120295490Y-113410284D01*
X120264278Y-113236570D01*
X120247846Y-113049314D01*
X120247547Y-113042869D01*
X120239529Y-112914231D01*
X120227967Y-112805889D01*
X120212758Y-112716983D01*
X120204896Y-112683840D01*
X120152194Y-112524444D01*
X120080535Y-112373537D01*
X119991279Y-112232785D01*
X119885789Y-112103854D01*
X119765426Y-111988409D01*
X119631552Y-111888118D01*
X119486794Y-111805268D01*
X119330050Y-111739572D01*
X119169186Y-111694283D01*
X119005896Y-111669323D01*
X118841875Y-111664614D01*
X118678818Y-111680076D01*
X118518419Y-111715632D01*
X118362373Y-111771203D01*
X118212375Y-111846712D01*
X118181003Y-111865590D01*
X118111335Y-111910674D01*
X118052160Y-111953879D01*
X117996362Y-112000918D01*
X117936822Y-112057502D01*
X117916709Y-112077654D01*
X117811849Y-112198447D01*
X117720882Y-112333756D01*
X117645445Y-112480513D01*
X117587175Y-112635651D01*
X117556186Y-112753502D01*
X117544725Y-112826703D01*
X117537864Y-112914330D01*
X117535539Y-113009886D01*
X117537687Y-113106878D01*
X117544247Y-113198807D01*
X117555156Y-113279180D01*
X117561539Y-113310150D01*
X117611512Y-113478036D01*
X117679353Y-113634724D01*
X117764673Y-113779509D01*
X117867083Y-113911692D01*
X117932453Y-113980633D01*
X118064210Y-114095790D01*
X118204745Y-114191766D01*
X118352901Y-114268264D01*
X118507520Y-114324987D01*
X118667446Y-114361639D01*
X118831520Y-114377922D01*
X118998586Y-114373541D01*
X119167486Y-114348197D01*
X119268163Y-114323111D01*
X119424297Y-114267344D01*
X119572499Y-114192221D01*
X119711031Y-114098905D01*
X119838154Y-113988562D01*
X119947517Y-113868102D01*
X119986293Y-113816516D01*
X120027069Y-113756253D01*
X120066580Y-113692718D01*
X120101560Y-113631321D01*
X120128743Y-113577470D01*
X120141434Y-113547016D01*
X120153237Y-113516998D01*
X120162876Y-113497407D01*
X120166780Y-113493048D01*
X120172509Y-113502530D01*
X120183310Y-113528095D01*
X120197471Y-113565495D01*
X120208848Y-113597542D01*
X120229414Y-113654112D01*
X120253021Y-113714721D01*
X120275611Y-113769063D01*
X120282923Y-113785571D01*
X120301119Y-113826558D01*
X120311210Y-113853664D01*
X120314193Y-113872412D01*
X120311068Y-113888325D01*
X120304309Y-113903846D01*
X120277743Y-113949347D01*
X120237602Y-114004942D01*
X120186972Y-114067240D01*
X120128936Y-114132846D01*
X120066579Y-114198368D01*
X120002984Y-114260412D01*
X119941235Y-114315585D01*
X119899410Y-114349335D01*
X119744555Y-114454514D01*
X119580467Y-114540630D01*
X119406351Y-114608039D01*
X119221410Y-114657096D01*
X119202785Y-114660908D01*
X119130005Y-114672414D01*
X119044285Y-114681187D01*
X118952531Y-114686910D01*
X118861648Y-114689266D01*
X118778539Y-114687941D01*
X118715148Y-114683229D01*
X118525971Y-114650815D01*
X118344470Y-114598847D01*
X118171732Y-114527843D01*
X118008845Y-114438318D01*
X117856896Y-114330791D01*
X117722638Y-114211417D01*
X117592063Y-114067915D01*
X117480801Y-113915519D01*
X117389085Y-113754813D01*
X117317147Y-113586379D01*
X117265220Y-113410800D01*
X117233537Y-113228658D01*
X117222331Y-113040536D01*
X117223683Y-112962490D01*
X117235382Y-112805927D01*
X117258584Y-112662171D01*
X117294796Y-112525066D01*
X117345527Y-112388458D01*
X117386518Y-112298017D01*
X117478030Y-112132362D01*
X117586005Y-111979929D01*
X117709374Y-111841608D01*
X117847066Y-111718290D01*
X117998013Y-111610866D01*
X118161145Y-111520227D01*
X118335392Y-111447263D01*
X118452574Y-111410164D01*
X118566194Y-111384534D01*
X118691898Y-111366595D01*
X118823177Y-111356669D01*
X118953520Y-111355077D01*
X119076419Y-111362144D01*
G37*
G36*
X121135638Y-112842192D02*
G01*
X121163725Y-112724530D01*
X121207574Y-112614674D01*
X121266242Y-112514347D01*
X121338790Y-112425270D01*
X121424278Y-112349164D01*
X121521763Y-112287751D01*
X121630306Y-112242754D01*
X121702143Y-112223977D01*
X121753520Y-112216044D01*
X121817119Y-112210185D01*
X121883772Y-112207165D01*
X121906737Y-112206920D01*
X122042244Y-112216234D01*
X122166785Y-112243699D01*
X122279568Y-112288600D01*
X122379801Y-112350224D01*
X122466692Y-112427854D01*
X122539451Y-112520778D01*
X122597285Y-112628279D01*
X122639403Y-112749644D01*
X122665013Y-112884158D01*
X122665966Y-112892267D01*
X122670834Y-113021834D01*
X122656755Y-113150762D01*
X122624527Y-113274778D01*
X122574948Y-113389610D01*
X122572127Y-113394852D01*
X122535181Y-113462826D01*
X122621262Y-113545617D01*
X122655786Y-113579393D01*
X122683708Y-113607800D01*
X122701890Y-113627570D01*
X122707342Y-113635181D01*
X122700159Y-113645639D01*
X122680966Y-113667299D01*
X122653300Y-113696609D01*
X122620694Y-113730020D01*
X122586684Y-113763981D01*
X122554805Y-113794943D01*
X122528592Y-113819356D01*
X122511580Y-113833669D01*
X122507418Y-113835950D01*
X122496562Y-113828806D01*
X122474119Y-113809422D01*
X122443500Y-113780867D01*
X122412535Y-113750620D01*
X122326878Y-113665291D01*
X122262574Y-113696165D01*
X122193058Y-113725494D01*
X122122394Y-113746183D01*
X122044186Y-113759659D01*
X121952041Y-113767349D01*
X121941055Y-113767890D01*
X121809404Y-113766403D01*
X121689057Y-113748655D01*
X121576657Y-113714021D01*
X121522283Y-113690126D01*
X121431148Y-113634691D01*
X121347662Y-113561696D01*
X121274400Y-113474407D01*
X121213937Y-113376087D01*
X121168848Y-113270004D01*
X121155345Y-113224803D01*
X121130507Y-113094050D01*
X121125082Y-112982959D01*
X121410707Y-112982959D01*
X121419584Y-113079909D01*
X121444489Y-113173094D01*
X121483548Y-113259400D01*
X121534887Y-113335716D01*
X121596630Y-113398931D01*
X121666904Y-113445933D01*
X121698026Y-113459903D01*
X121791687Y-113489514D01*
X121878417Y-113502175D01*
X121963637Y-113498455D01*
X122002152Y-113491754D01*
X122095777Y-113461550D01*
X122179045Y-113413371D01*
X122250448Y-113348764D01*
X122308480Y-113269278D01*
X122351633Y-113176459D01*
X122369969Y-113114116D01*
X122384030Y-113015643D01*
X122381099Y-112917100D01*
X122362422Y-112821531D01*
X122329246Y-112731983D01*
X122282817Y-112651500D01*
X122224383Y-112583128D01*
X122155190Y-112529913D01*
X122123915Y-112513142D01*
X122039415Y-112483823D01*
X121945745Y-112469563D01*
X121849001Y-112470373D01*
X121755276Y-112486265D01*
X121681132Y-112512280D01*
X121625295Y-112545469D01*
X121568738Y-112592114D01*
X121518452Y-112645669D01*
X121481743Y-112699001D01*
X121455844Y-112757922D01*
X121433867Y-112828980D01*
X121418122Y-112902941D01*
X121410919Y-112970569D01*
X121410707Y-112982959D01*
X121125082Y-112982959D01*
X121124251Y-112965939D01*
X121135638Y-112842192D01*
G37*
G36*
X118358344Y-113099459D02*
G01*
X118389495Y-113029813D01*
X118415371Y-112971942D01*
X118447811Y-112899459D01*
X118478866Y-112830221D01*
X118507002Y-112767637D01*
X118530684Y-112715119D01*
X118548376Y-112676079D01*
X118557090Y-112657047D01*
X118582813Y-112600917D01*
X118609896Y-112540813D01*
X118636902Y-112480041D01*
X118662394Y-112421907D01*
X118684933Y-112369715D01*
X118703081Y-112326771D01*
X118715402Y-112296380D01*
X118720456Y-112281847D01*
X118720507Y-112281368D01*
X118730740Y-112277589D01*
X118759517Y-112274535D01*
X118803956Y-112272383D01*
X118861171Y-112271311D01*
X118884714Y-112271224D01*
X119048922Y-112271224D01*
X119071703Y-112322131D01*
X119122591Y-112435806D01*
X119165330Y-112531186D01*
X119200497Y-112609555D01*
X119228670Y-112672198D01*
X119250424Y-112720397D01*
X119266338Y-112755438D01*
X119271293Y-112766266D01*
X119287906Y-112803063D01*
X119302016Y-112835372D01*
X119308895Y-112852005D01*
X119315304Y-112866997D01*
X119329387Y-112898990D01*
X119350006Y-112945448D01*
X119376024Y-113003834D01*
X119406301Y-113071609D01*
X119439699Y-113146237D01*
X119475080Y-113225180D01*
X119511305Y-113305902D01*
X119547236Y-113385865D01*
X119581735Y-113462531D01*
X119613662Y-113533364D01*
X119641879Y-113595827D01*
X119665249Y-113647382D01*
X119682632Y-113685491D01*
X119691184Y-113703999D01*
X119705317Y-113735158D01*
X119714771Y-113757862D01*
X119717215Y-113765624D01*
X119707121Y-113767734D01*
X119679324Y-113769521D01*
X119637559Y-113770844D01*
X119585556Y-113771560D01*
X119558841Y-113771646D01*
X119400466Y-113771646D01*
X119369358Y-113699304D01*
X119347791Y-113650157D01*
X119323727Y-113596803D01*
X119306674Y-113559979D01*
X119275099Y-113492996D01*
X118499909Y-113492996D01*
X118481269Y-113533186D01*
X118468707Y-113560685D01*
X118450476Y-113601105D01*
X118429582Y-113647765D01*
X118418560Y-113672511D01*
X118374492Y-113771646D01*
X118214630Y-113771646D01*
X118159321Y-113771141D01*
X118112945Y-113769751D01*
X118079071Y-113767660D01*
X118061269Y-113765054D01*
X118059513Y-113763608D01*
X118065125Y-113751840D01*
X118078131Y-113723484D01*
X118097179Y-113681523D01*
X118120918Y-113628937D01*
X118147995Y-113568709D01*
X118157918Y-113546583D01*
X118187469Y-113480655D01*
X118215649Y-113417805D01*
X118240704Y-113361947D01*
X118260877Y-113316993D01*
X118274413Y-113286857D01*
X118276263Y-113282744D01*
X118287409Y-113257911D01*
X118305803Y-113216855D01*
X118305872Y-113216700D01*
X118624051Y-113216700D01*
X118634179Y-113219147D01*
X118662215Y-113221164D01*
X118704637Y-113222750D01*
X118757921Y-113223903D01*
X118818546Y-113224621D01*
X118882990Y-113224901D01*
X118947729Y-113224741D01*
X119009242Y-113224139D01*
X119064005Y-113223093D01*
X119108497Y-113221601D01*
X119139195Y-113219660D01*
X119152577Y-113217269D01*
X119152815Y-113217026D01*
X119151637Y-113203262D01*
X119142935Y-113178049D01*
X119137693Y-113166118D01*
X119121615Y-113130761D01*
X119098075Y-113077702D01*
X119067966Y-113008982D01*
X119032177Y-112926639D01*
X118991599Y-112832715D01*
X118959832Y-112758861D01*
X118937781Y-112708118D01*
X118918307Y-112664440D01*
X118903143Y-112631626D01*
X118894017Y-112613474D01*
X118892607Y-112611327D01*
X118885211Y-112616168D01*
X118872772Y-112636665D01*
X118857916Y-112668455D01*
X118857152Y-112670272D01*
X118842493Y-112704808D01*
X118821617Y-112753264D01*
X118796986Y-112809960D01*
X118771061Y-112869217D01*
X118763036Y-112887469D01*
X118719615Y-112986432D01*
X118684744Y-113066678D01*
X118658088Y-113128998D01*
X118639312Y-113174182D01*
X118628085Y-113203022D01*
X118624070Y-113216307D01*
X118624051Y-113216700D01*
X118305872Y-113216700D01*
X118329948Y-113162922D01*
X118358344Y-113099459D01*
G37*
G36*
X122114963Y-111363848D02*
G01*
X122299649Y-111396998D01*
X122482698Y-111451360D01*
X122503713Y-111459015D01*
X122666564Y-111530656D01*
X122822274Y-111621213D01*
X122968695Y-111728757D01*
X123103675Y-111851360D01*
X123225065Y-111987091D01*
X123330713Y-112134022D01*
X123409041Y-112271224D01*
X123469546Y-112406280D01*
X123516830Y-112546907D01*
X123551747Y-112696625D01*
X123575151Y-112858953D01*
X123586239Y-113001797D01*
X123598615Y-113157547D01*
X123619245Y-113296593D01*
X123649237Y-113422443D01*
X123689700Y-113538599D01*
X123741742Y-113648569D01*
X123806470Y-113755858D01*
X123839744Y-113803798D01*
X123950004Y-113939692D01*
X124072187Y-114058226D01*
X124205609Y-114158921D01*
X124349587Y-114241300D01*
X124503437Y-114304886D01*
X124598484Y-114333374D01*
X124766305Y-114366206D01*
X124935103Y-114378081D01*
X125103141Y-114369084D01*
X125268684Y-114339305D01*
X125422431Y-114291704D01*
X125573738Y-114223613D01*
X125714866Y-114137809D01*
X125844317Y-114035958D01*
X125960594Y-113919724D01*
X126062201Y-113790773D01*
X126147641Y-113650770D01*
X126215416Y-113501380D01*
X126260190Y-113359820D01*
X126291769Y-113193147D01*
X126302511Y-113026848D01*
X126292980Y-112862504D01*
X126263740Y-112701700D01*
X126215355Y-112546017D01*
X126148387Y-112397039D01*
X126063401Y-112256348D01*
X125960961Y-112125528D01*
X125841630Y-112006161D01*
X125752043Y-111933029D01*
X125614295Y-111842484D01*
X125466862Y-111769699D01*
X125312205Y-111715368D01*
X125152784Y-111680187D01*
X124991060Y-111664850D01*
X124829494Y-111670052D01*
X124823064Y-111670698D01*
X124661724Y-111695229D01*
X124512757Y-111734931D01*
X124372108Y-111791205D01*
X124235727Y-111865449D01*
X124207764Y-111883121D01*
X124090592Y-111969398D01*
X123980205Y-112071121D01*
X123879947Y-112184369D01*
X123793163Y-112305225D01*
X123723199Y-112429768D01*
X123702730Y-112474853D01*
X123687222Y-112508282D01*
X123673981Y-112531294D01*
X123665660Y-112539340D01*
X123665216Y-112539156D01*
X123658651Y-112527436D01*
X123646937Y-112499765D01*
X123631826Y-112460485D01*
X123617638Y-112421266D01*
X123597505Y-112366255D01*
X123575709Y-112310161D01*
X123555515Y-112261251D01*
X123545670Y-112239098D01*
X123531902Y-112208924D01*
X123523667Y-112185318D01*
X123522119Y-112164328D01*
X123528412Y-112142000D01*
X123543700Y-112114381D01*
X123569137Y-112077517D01*
X123605879Y-112027456D01*
X123608512Y-112023887D01*
X123724122Y-111884769D01*
X123854420Y-111759818D01*
X123997494Y-111649889D01*
X124151427Y-111555835D01*
X124314307Y-111478512D01*
X124484218Y-111418772D01*
X124659248Y-111377470D01*
X124837481Y-111355461D01*
X125017003Y-111353599D01*
X125097300Y-111359521D01*
X125288197Y-111389109D01*
X125471405Y-111438689D01*
X125646635Y-111508137D01*
X125813598Y-111597328D01*
X125972005Y-111706137D01*
X126051140Y-111770636D01*
X126171125Y-111887348D01*
X126280413Y-112020428D01*
X126377157Y-112166725D01*
X126459508Y-112323083D01*
X126525618Y-112486350D01*
X126573639Y-112653372D01*
X126576861Y-112667790D01*
X126606162Y-112851287D01*
X126614662Y-113035232D01*
X126602879Y-113217910D01*
X126571332Y-113397606D01*
X126520538Y-113572603D01*
X126451017Y-113741187D01*
X126363287Y-113901643D01*
X126257865Y-114052254D01*
X126135271Y-114191305D01*
X126108420Y-114217884D01*
X125968243Y-114338812D01*
X125814567Y-114444223D01*
X125649988Y-114532759D01*
X125477101Y-114603059D01*
X125298500Y-114653764D01*
X125261093Y-114661680D01*
X125195531Y-114671934D01*
X125116013Y-114680037D01*
X125029112Y-114685699D01*
X124941401Y-114688633D01*
X124859455Y-114688549D01*
X124789846Y-114685158D01*
X124770422Y-114683231D01*
X124585408Y-114651527D01*
X124406136Y-114600638D01*
X124235516Y-114531500D01*
X124133204Y-114478670D01*
X123974874Y-114377495D01*
X123829827Y-114260511D01*
X123699204Y-114129174D01*
X123584147Y-113984942D01*
X123485797Y-113829272D01*
X123405295Y-113663622D01*
X123343783Y-113489450D01*
X123335530Y-113459966D01*
X123319319Y-113396900D01*
X123306671Y-113339505D01*
X123296894Y-113282768D01*
X123289296Y-113221671D01*
X123283185Y-113151200D01*
X123277871Y-113066339D01*
X123275790Y-113026794D01*
X123267561Y-112905464D01*
X123255438Y-112800548D01*
X123238351Y-112707213D01*
X123215231Y-112620623D01*
X123185010Y-112535945D01*
X123149006Y-112453418D01*
X123121482Y-112397956D01*
X123090557Y-112340832D01*
X123059539Y-112287769D01*
X123031731Y-112244487D01*
X123015883Y-112222996D01*
X123000647Y-112204338D01*
X122976711Y-112175060D01*
X122948955Y-112141130D01*
X122945786Y-112137258D01*
X122852168Y-112037456D01*
X122740638Y-111944006D01*
X122614359Y-111859348D01*
X122514431Y-111804378D01*
X122363422Y-111740214D01*
X122205353Y-111695509D01*
X122042620Y-111670488D01*
X121877620Y-111665376D01*
X121712753Y-111680397D01*
X121555008Y-111714478D01*
X121414006Y-111761428D01*
X121285363Y-111820463D01*
X121165135Y-111893950D01*
X121049377Y-111984259D01*
X120949705Y-112077878D01*
X120894365Y-112135213D01*
X120850799Y-112184291D01*
X120814493Y-112230788D01*
X120780932Y-112280377D01*
X120755275Y-112322292D01*
X120726109Y-112373110D01*
X120699317Y-112422811D01*
X120677870Y-112465693D01*
X120664740Y-112496052D01*
X120652853Y-112526029D01*
X120642981Y-112545568D01*
X120638896Y-112549874D01*
X120632799Y-112540442D01*
X120622548Y-112515475D01*
X120610153Y-112479969D01*
X120607635Y-112472173D01*
X120592669Y-112428700D01*
X120572199Y-112373850D01*
X120549360Y-112315864D01*
X120534532Y-112279931D01*
X120486199Y-112165389D01*
X120521178Y-112108454D01*
X120608935Y-111983629D01*
X120714731Y-111863814D01*
X120835278Y-111751878D01*
X120967288Y-111650690D01*
X121107474Y-111563119D01*
X121201561Y-111514792D01*
X121379612Y-111442518D01*
X121560965Y-111391245D01*
X121744633Y-111361014D01*
X121929628Y-111351867D01*
X122114963Y-111363848D01*
G37*
G36*
X124996938Y-112234283D02*
G01*
X125040593Y-112235842D01*
X125071603Y-112238169D01*
X125086026Y-112241039D01*
X125086583Y-112241751D01*
X125086583Y-113739494D01*
X124946921Y-113739494D01*
X124884353Y-113738841D01*
X124840968Y-113736744D01*
X124814549Y-113732998D01*
X124802880Y-113727399D01*
X124802143Y-113726097D01*
X124801324Y-113713380D01*
X124800624Y-113680998D01*
X124800050Y-113630720D01*
X124799606Y-113564316D01*
X124799297Y-113483554D01*
X124799130Y-113390205D01*
X124799110Y-113286036D01*
X124799242Y-113172819D01*
X124799532Y-113052321D01*
X124799800Y-112973207D01*
X124802574Y-112233713D01*
X124944578Y-112233713D01*
X124996938Y-112234283D01*
G37*
%TO.C,MiCS1_1*%
X129500000Y-76000000D02*
X118500000Y-76000000D01*
X118000000Y-83500000D02*
X118000000Y-76000000D01*
X128000000Y-82000000D02*
X128500000Y-82000000D01*
X119000000Y-82000000D02*
X129000000Y-82000000D01*
X129000000Y-76000000D02*
X119000000Y-76000000D01*
X128000000Y-82000000D02*
X120000000Y-82000000D01*
X129000000Y-83500000D02*
X130000000Y-83500000D01*
X118000000Y-76000000D02*
X130000000Y-76000000D01*
X119500000Y-82000000D02*
X128000000Y-82000000D01*
X120000000Y-82000000D02*
X119500000Y-82000000D01*
X119000000Y-83500000D02*
X119000000Y-82000000D01*
X129000000Y-82000000D02*
X129000000Y-83500000D01*
X118500000Y-83500000D02*
X118000000Y-83500000D01*
X119000000Y-83500000D02*
X118500000Y-83500000D01*
X130000000Y-83500000D02*
X130000000Y-76000000D01*
%TO.C,Arduino_Nano_33_IOT1*%
X146500000Y-74970000D02*
X149170000Y-74970000D01*
X133800000Y-77510000D02*
X131130000Y-77510000D01*
X133800000Y-74970000D02*
X131130000Y-74970000D01*
X146500000Y-74970000D02*
X146500000Y-113070000D01*
X133800000Y-77510000D02*
X133800000Y-113070000D01*
X131130000Y-72300000D02*
X131130000Y-74970000D01*
X131130000Y-115740000D02*
X149170000Y-115740000D01*
X133800000Y-77510000D02*
X133800000Y-74970000D01*
X146500000Y-113070000D02*
X149170000Y-113070000D01*
X131130000Y-77510000D02*
X131130000Y-115740000D01*
X149170000Y-72300000D02*
X131130000Y-72300000D01*
X149170000Y-115740000D02*
X149170000Y-72300000D01*
X133800000Y-113070000D02*
X131130000Y-113070000D01*
%TO.C,CCS811_1*%
X154195000Y-99080000D02*
X172085000Y-99080000D01*
X172085000Y-99080000D02*
X172085000Y-119400000D01*
X172085000Y-119400000D02*
X154195000Y-119400000D01*
X154195000Y-119400000D02*
X154195000Y-99080000D01*
X172085000Y-119400000D02*
X154195000Y-119400000D01*
X154195000Y-99080000D01*
X172085000Y-99080000D01*
X172085000Y-119400000D01*
%TO.C,PMS5003_1*%
X167900000Y-70500000D02*
X167900000Y-95500000D01*
X152900000Y-70500000D02*
X167900000Y-70500000D01*
X152900000Y-95500000D02*
X152900000Y-70500000D01*
X167900000Y-95500000D02*
X152900000Y-95500000D01*
%TD*%
M02*
