%TF.GenerationSoftware,KiCad,Pcbnew,(6.0.7)*%
%TF.CreationDate,2023-07-05T17:17:39+02:00*%
%TF.ProjectId,project_alpha,70726f6a-6563-4745-9f61-6c7068612e6b,rev?*%
%TF.SameCoordinates,Original*%
%TF.FileFunction,Copper,L2,Bot*%
%TF.FilePolarity,Positive*%
%FSLAX46Y46*%
G04 Gerber Fmt 4.6, Leading zero omitted, Abs format (unit mm)*
G04 Created by KiCad (PCBNEW (6.0.7)) date 2023-07-05 17:17:39*
%MOMM*%
%LPD*%
G01*
G04 APERTURE LIST*
%TA.AperFunction,ComponentPad*%
%ADD10R,1.500000X1.500000*%
%TD*%
%TA.AperFunction,ComponentPad*%
%ADD11C,1.500000*%
%TD*%
%TA.AperFunction,ComponentPad*%
%ADD12R,1.600000X1.600000*%
%TD*%
%TA.AperFunction,ComponentPad*%
%ADD13O,1.600000X1.600000*%
%TD*%
%TA.AperFunction,ViaPad*%
%ADD14C,0.700000*%
%TD*%
%TA.AperFunction,ViaPad*%
%ADD15C,0.800000*%
%TD*%
%TA.AperFunction,Conductor*%
%ADD16C,0.300000*%
%TD*%
%TA.AperFunction,Conductor*%
%ADD17C,0.500000*%
%TD*%
G04 APERTURE END LIST*
D10*
%TO.P,U1,1,GND*%
%TO.N,GND*%
X123000000Y-95000000D03*
D11*
%TO.P,U1,2,VCC*%
%TO.N,Net-(Arduino_Nano_33_IOT1-Pad30)*%
X123000000Y-97540000D03*
%TO.P,U1,3,IO*%
%TO.N,Net-(Arduino_Nano_33_IOT1-Pad5)*%
X123000000Y-100080000D03*
%TO.P,U1,4,NC*%
%TO.N,unconnected-(U1-Pad4)*%
X123000000Y-102620000D03*
%TD*%
D12*
%TO.P,Arduino_Nano_33_IOT1,1,TX1*%
%TO.N,unconnected-(Arduino_Nano_33_IOT1-Pad1)*%
X132530000Y-76240000D03*
D13*
%TO.P,Arduino_Nano_33_IOT1,2,RX1*%
%TO.N,Net-(Arduino_Nano_33_IOT1-Pad2)*%
X132530000Y-78780000D03*
%TO.P,Arduino_Nano_33_IOT1,3,~{RESET}*%
%TO.N,unconnected-(Arduino_Nano_33_IOT1-Pad3)*%
X132530000Y-81320000D03*
%TO.P,Arduino_Nano_33_IOT1,4,GND*%
%TO.N,GND*%
X132530000Y-83860000D03*
%TO.P,Arduino_Nano_33_IOT1,5,D2*%
%TO.N,Net-(Arduino_Nano_33_IOT1-Pad5)*%
X132530000Y-86400000D03*
%TO.P,Arduino_Nano_33_IOT1,6,D3*%
%TO.N,unconnected-(Arduino_Nano_33_IOT1-Pad6)*%
X132530000Y-88940000D03*
%TO.P,Arduino_Nano_33_IOT1,7,D4*%
%TO.N,unconnected-(Arduino_Nano_33_IOT1-Pad7)*%
X132530000Y-91480000D03*
%TO.P,Arduino_Nano_33_IOT1,8,D5*%
%TO.N,unconnected-(Arduino_Nano_33_IOT1-Pad8)*%
X132530000Y-94020000D03*
%TO.P,Arduino_Nano_33_IOT1,9,D6*%
%TO.N,unconnected-(Arduino_Nano_33_IOT1-Pad9)*%
X132530000Y-96560000D03*
%TO.P,Arduino_Nano_33_IOT1,10,D7*%
%TO.N,unconnected-(Arduino_Nano_33_IOT1-Pad10)*%
X132530000Y-99100000D03*
%TO.P,Arduino_Nano_33_IOT1,11,D8*%
%TO.N,unconnected-(Arduino_Nano_33_IOT1-Pad11)*%
X132530000Y-101640000D03*
%TO.P,Arduino_Nano_33_IOT1,12,D9*%
%TO.N,unconnected-(Arduino_Nano_33_IOT1-Pad12)*%
X132530000Y-104180000D03*
%TO.P,Arduino_Nano_33_IOT1,13,D10*%
%TO.N,unconnected-(Arduino_Nano_33_IOT1-Pad13)*%
X132530000Y-106720000D03*
%TO.P,Arduino_Nano_33_IOT1,14,MOSI*%
%TO.N,unconnected-(Arduino_Nano_33_IOT1-Pad14)*%
X132530000Y-109260000D03*
%TO.P,Arduino_Nano_33_IOT1,15,MISO*%
%TO.N,unconnected-(Arduino_Nano_33_IOT1-Pad15)*%
X132530000Y-111800000D03*
%TO.P,Arduino_Nano_33_IOT1,16,SCK*%
%TO.N,unconnected-(Arduino_Nano_33_IOT1-Pad16)*%
X147770000Y-111800000D03*
%TO.P,Arduino_Nano_33_IOT1,17,3V3*%
%TO.N,Net-(Arduino_Nano_33_IOT1-Pad17)*%
X147770000Y-109260000D03*
%TO.P,Arduino_Nano_33_IOT1,18,AREF*%
%TO.N,unconnected-(Arduino_Nano_33_IOT1-Pad18)*%
X147770000Y-106720000D03*
%TO.P,Arduino_Nano_33_IOT1,19,A0*%
%TO.N,unconnected-(Arduino_Nano_33_IOT1-Pad19)*%
X147770000Y-104180000D03*
%TO.P,Arduino_Nano_33_IOT1,20,A1*%
%TO.N,unconnected-(Arduino_Nano_33_IOT1-Pad20)*%
X147770000Y-101640000D03*
%TO.P,Arduino_Nano_33_IOT1,21,A2*%
%TO.N,unconnected-(Arduino_Nano_33_IOT1-Pad21)*%
X147770000Y-99100000D03*
%TO.P,Arduino_Nano_33_IOT1,22,A3*%
%TO.N,unconnected-(Arduino_Nano_33_IOT1-Pad22)*%
X147770000Y-96560000D03*
%TO.P,Arduino_Nano_33_IOT1,23,SDA/A4*%
%TO.N,Net-(Arduino_Nano_33_IOT1-Pad23)*%
X147770000Y-94020000D03*
%TO.P,Arduino_Nano_33_IOT1,24,SCL/A5*%
%TO.N,Net-(Arduino_Nano_33_IOT1-Pad24)*%
X147770000Y-91480000D03*
%TO.P,Arduino_Nano_33_IOT1,25,A6*%
%TO.N,unconnected-(Arduino_Nano_33_IOT1-Pad25)*%
X147770000Y-88940000D03*
%TO.P,Arduino_Nano_33_IOT1,26,A7*%
%TO.N,unconnected-(Arduino_Nano_33_IOT1-Pad26)*%
X147770000Y-86400000D03*
%TO.P,Arduino_Nano_33_IOT1,27,+5V*%
%TO.N,unconnected-(Arduino_Nano_33_IOT1-Pad27)*%
X147770000Y-83860000D03*
%TO.P,Arduino_Nano_33_IOT1,28,~{RESET}*%
%TO.N,unconnected-(Arduino_Nano_33_IOT1-Pad28)*%
X147770000Y-81320000D03*
%TO.P,Arduino_Nano_33_IOT1,29,GND*%
%TO.N,GND*%
X147770000Y-78780000D03*
%TO.P,Arduino_Nano_33_IOT1,30,VIN*%
%TO.N,Net-(Arduino_Nano_33_IOT1-Pad30)*%
X147770000Y-76240000D03*
%TD*%
%TO.P,CCS811_1,1,VDD*%
%TO.N,unconnected-(CCS811_1-Pad1)*%
X156585000Y-100350000D03*
%TO.P,CCS811_1,2,3Vo*%
%TO.N,Net-(Arduino_Nano_33_IOT1-Pad17)*%
X156585000Y-102890000D03*
%TO.P,CCS811_1,3,GND*%
%TO.N,GND*%
X156585000Y-105430000D03*
%TO.P,CCS811_1,4,SCL*%
%TO.N,Net-(Arduino_Nano_33_IOT1-Pad24)*%
X156585000Y-107970000D03*
%TO.P,CCS811_1,5,SDA*%
%TO.N,Net-(Arduino_Nano_33_IOT1-Pad23)*%
X156585000Y-110510000D03*
%TO.P,CCS811_1,6,~{INT}*%
%TO.N,unconnected-(CCS811_1-Pad6)*%
X156585000Y-113050000D03*
%TO.P,CCS811_1,7,~{RESET}*%
%TO.N,unconnected-(CCS811_1-Pad7)*%
X156585000Y-115590000D03*
%TO.P,CCS811_1,8,~{WAKE}*%
%TO.N,GND*%
X156585000Y-118130000D03*
%TD*%
%TO.P,PMS5003_1,1,Pin_1*%
%TO.N,Net-(Arduino_Nano_33_IOT1-Pad30)*%
X156900000Y-74400000D03*
%TO.P,PMS5003_1,2,Pin_2*%
%TO.N,GND*%
X156900000Y-76900000D03*
%TO.P,PMS5003_1,3,Pin_3*%
%TO.N,unconnected-(PMS5003_1-Pad3)*%
X156900000Y-79400000D03*
%TO.P,PMS5003_1,4,Pin_4*%
%TO.N,unconnected-(PMS5003_1-Pad4)*%
X156900000Y-81900000D03*
%TO.P,PMS5003_1,5,Pin_5*%
%TO.N,Net-(Arduino_Nano_33_IOT1-Pad2)*%
X156900000Y-84400000D03*
%TO.P,PMS5003_1,6,Pin_6*%
%TO.N,unconnected-(PMS5003_1-Pad6)*%
X156900000Y-86900000D03*
%TO.P,PMS5003_1,7,Pin_7*%
%TO.N,unconnected-(PMS5003_1-Pad7)*%
X156900000Y-89400000D03*
%TO.P,PMS5003_1,8,Pin_8*%
%TO.N,unconnected-(PMS5003_1-Pad8)*%
X156900000Y-91900000D03*
%TD*%
D14*
%TO.N,Net-(Arduino_Nano_33_IOT1-Pad2)*%
X150740000Y-77039500D03*
X150740000Y-75440500D03*
D15*
X143000000Y-79000000D03*
X137000000Y-79000000D03*
%TO.N,Net-(Arduino_Nano_33_IOT1-Pad5)*%
X129250000Y-95000000D03*
X127400500Y-96500000D03*
D14*
%TO.N,Net-(Arduino_Nano_33_IOT1-Pad23)*%
X151149939Y-107010726D03*
X150009274Y-105890061D03*
%TO.N,Net-(Arduino_Nano_33_IOT1-Pad24)*%
X152224939Y-105935726D03*
X151069274Y-104830061D03*
D15*
%TO.N,Net-(Arduino_Nano_33_IOT1-Pad30)*%
X147500000Y-73500000D03*
X147500000Y-71750500D03*
%TD*%
D16*
%TO.N,Net-(Arduino_Nano_33_IOT1-Pad2)*%
X150740000Y-75440500D02*
X150740000Y-77039500D01*
X143000000Y-79000000D02*
X137000000Y-79000000D01*
%TO.N,Net-(Arduino_Nano_33_IOT1-Pad5)*%
X127400500Y-96500000D02*
X128900500Y-95000000D01*
X128900500Y-95000000D02*
X129250000Y-95000000D01*
%TO.N,Net-(Arduino_Nano_33_IOT1-Pad23)*%
X151129939Y-107010726D02*
X150009274Y-105890061D01*
X151149939Y-107010726D02*
X151129939Y-107010726D01*
%TO.N,Net-(Arduino_Nano_33_IOT1-Pad24)*%
X152224939Y-105935726D02*
X152174939Y-105935726D01*
X152174939Y-105935726D02*
X151069274Y-104830061D01*
D17*
%TO.N,Net-(Arduino_Nano_33_IOT1-Pad30)*%
X147500000Y-71750500D02*
X147500000Y-73500000D01*
%TD*%
M02*
